<?xml version="1.0" encoding="UTF-8" standalone="no"?>
<svg
   width="24"
   height="24"
   viewBox="0 0 24 24"
   fill="none"
   stroke="currentColor"
   stroke-width="1"
   stroke-linecap="round"
   stroke-linejoin="round"
   class="lucide lucide-text-cursor-input"
   version="1.1"
   id="svg5"
   sodipodi:docname="input-number.svg"
   inkscape:version="1.4 (86a8ad7, 2024-10-11)"
   xmlns:inkscape="http://www.inkscape.org/namespaces/inkscape"
   xmlns:sodipodi="http://sodipodi.sourceforge.net/DTD/sodipodi-0.dtd"
   xmlns="http://www.w3.org/2000/svg"
   xmlns:svg="http://www.w3.org/2000/svg">
  <defs
     id="defs5" />
  <sodipodi:namedview
     id="namedview5"
     pagecolor="#ffffff"
     bordercolor="#000000"
     borderopacity="0.25"
     inkscape:showpageshadow="2"
     inkscape:pageopacity="0.0"
     inkscape:pagecheckerboard="0"
     inkscape:deskcolor="#d1d1d1"
     inkscape:zoom="6.003042"
     inkscape:cx="-9.0787305"
     inkscape:cy="-9.4118949"
     inkscape:window-width="1920"
     inkscape:window-height="1017"
     inkscape:window-x="-8"
     inkscape:window-y="-8"
     inkscape:window-maximized="1"
     inkscape:current-layer="svg5"
     showguides="true" />
  <path
     d="M 19,4 H 18 A 3,3 0 0 0 15,7 3,3 0 0 0 12,4 h -1"
     id="path1" />
  <path
     d="m 11,20 h 1 a 3,3 0 0 0 3,-3 3,3 0 0 0 3,3 h 1"
     id="path2" />
  <path
     d="m 19,16 h 1 a 2,2 0 0 0 2,-2 V 10 A 2,2 0 0 0 20,8 h -1"
     id="path3" />
  <path
     d="M 11,8 H 4 a 2,2 0 0 0 -2,2 v 4 a 2,2 0 0 0 2,2 h 7"
     id="path4" />
  <path
     d="M 15,7 V 17"
     id="path5" />
  <path
     d="m 4.398773,11.233181 1.2,-0.8 v 3.2"
     id="path4-9"
     style="stroke-width:0.8" />
  <path
     d="M 8.6341126,13.665226 H 7.3658875 c 0,-1.688958 1.2682251,-1.266717 1.2682251,-2.533436 0,-0.633359 -0.6341125,-1.055598 -1.2682251,-0.42224"
     id="path4-4"
     style="stroke-width:0.731775" />
  <g
     id="g5"
     transform="matrix(0.33701903,0,0,0.39760821,4.2268385,6.4122684)">
    <path
       d="m 17.5,10.5 c 1.7,-1 3.5,0 3.5,1.5 a 2,2 0 0 1 -2,2"
       id="path4-8" />
    <path
       d="m 17,17.5 c 2,1.5 4,0.3 4,-1.5 a 2,2 0 0 0 -2,-2"
       id="path5-8" />
  </g>
</svg>
