<?xml version="1.0" encoding="UTF-8" standalone="no"?>
<svg
   width="24"
   height="24"
   viewBox="0 0 24 24"
   fill="none"
   stroke="currentColor"
   stroke-width="1"
   stroke-linecap="round"
   stroke-linejoin="round"
   class="lucide lucide-text-cursor-input"
   version="1.1"
   id="svg5"
   sodipodi:docname="textarea.svg"
   inkscape:version="1.4 (86a8ad7, 2024-10-11)"
   xmlns:inkscape="http://www.inkscape.org/namespaces/inkscape"
   xmlns:sodipodi="http://sodipodi.sourceforge.net/DTD/sodipodi-0.dtd"
   xmlns="http://www.w3.org/2000/svg"
   xmlns:svg="http://www.w3.org/2000/svg">
  <defs
     id="defs5" />
  <sodipodi:namedview
     id="namedview5"
     pagecolor="#ffffff"
     bordercolor="#000000"
     borderopacity="0.25"
     inkscape:showpageshadow="2"
     inkscape:pageopacity="0.0"
     inkscape:pagecheckerboard="0"
     inkscape:deskcolor="#d1d1d1"
     inkscape:zoom="33.958333"
     inkscape:cx="12"
     inkscape:cy="14.355828"
     inkscape:window-width="1920"
     inkscape:window-height="1017"
     inkscape:window-x="-8"
     inkscape:window-y="-8"
     inkscape:window-maximized="1"
     inkscape:current-layer="svg5" />
  <path
     d="M5 4h1a3 3 0 0 1 3 3 3 3 0 0 1 3-3h1"
     id="path1" />
  <path
     d="M13 20h-1a3 3 0 0 1-3-3 3 3 0 0 1-3 3H5"
     id="path2" />
  <path
     d="M5 16H4a2 2 0 0 1-2-2v-4a2 2 0 0 1 2-2h1"
     id="path3" />
  <path
     d="M13 8h7a2 2 0 0 1 2 2v4a2 2 0 0 1-2 2h-7"
     id="path4" />
  <path
     d="M9 7v10"
     id="path5" />
  <path
     fill-rule="evenodd"
     clip-rule="evenodd"
     d="m 20.122983,12.588412 c 0,-0.09101 -0.120058,-0.134691 -0.186402,-0.06781 l -1.581216,1.59392 c -0.06353,0.06405 -0.01471,0.167797 0.07895,0.167797 h 1.581216 c 0.05934,0 0.107449,-0.04476 0.107449,-0.09998 z"
     fill="#333333"
     stroke="#333333"
     stroke-width="0.207294"
     stroke-linecap="butt"
     stroke-linejoin="round"
     id="path1-0" />
</svg>
