<svg xmlns="http://www.w3.org/2000/svg" xmlns:xlink="http://www.w3.org/1999/xlink" width="0" height="0" style="display:none;"><symbol id="icon-checkbox"><path d="M5 2C3.355 2 2 3.355 2 5v14c0 1.645 1.355 3 3 3h14c1.645 0 3-1.355 3-3V5c0-1.645-1.355-3-3-3Zm0 2h14c.571 0 1 .429 1 1v14c0 .571-.429 1-1 1H5c-.571 0-1-.429-1-1V5c0-.571.429-1 1-1" style="fill:#000"></path><path d="M15 9a1 1 0 0 0-.707.293L11 12.586l-1.293-1.293a1 1 0 0 0-1.414 0 1 1 0 0 0 0 1.414l2 2a1 1 0 0 0 1.414 0l4-4a1 1 0 0 0 0-1.414A1 1 0 0 0 15 9" style="fill:#000"></path></symbol><symbol id="icon-close"><path d="m17.293 5.293-12 12a1 1 0 0 0 0 1.414 1 1 0 0 0 1.414 0l12-12a1 1 0 0 0 0-1.414 1 1 0 0 0-1.414 0" style="fill:#000"></path><path d="M6 5a1 1 0 0 0-.707.293 1 1 0 0 0 0 1.414l12 12a1 1 0 0 0 1.414 0 1 1 0 0 0 0-1.414l-12-12A1 1 0 0 0 6 5" style="fill:#000"></path></symbol><symbol id="icon-code-1"><path d="M10.625 8.719a1 1 0 0 0-1.406.156l-2 2.5a1 1 0 0 0 0 1.25l2 2.5a1 1 0 0 0 1.406.156 1 1 0 0 0 .156-1.406L9.281 12l1.5-1.875a1 1 0 0 0-.156-1.406m2.75 0a1 1 0 0 0-.156 1.406l1.5 1.875-1.5 1.875a1 1 0 0 0 .156 1.406 1 1 0 0 0 1.406-.156l2-2.5a1 1 0 0 0 0-1.25l-2-2.5a1 1 0 0 0-1.406-.156" style="fill:#000"></path><path d="M5 2C3.355 2 2 3.355 2 5v14c0 1.645 1.355 3 3 3h14c1.645 0 3-1.355 3-3V5c0-1.645-1.355-3-3-3Zm0 2h14c.571 0 1 .429 1 1v14c0 .571-.429 1-1 1H5c-.571 0-1-.429-1-1V5c0-.571.429-1 1-1" style="fill:#000"></path></symbol><symbol id="icon-code-2"><path d="M10.625 9.719a1 1 0 0 0-1.406.156l-2 2.5a1 1 0 0 0 0 1.25l2 2.5a1 1 0 0 0 1.406.156 1 1 0 0 0 .156-1.406L9.281 13l1.5-1.875a1 1 0 0 0-.156-1.406m2.75 0a1 1 0 0 0-.156 1.406l1.5 1.875-1.5 1.875a1 1 0 0 0 .156 1.406 1 1 0 0 0 1.406-.156l2-2.5a1 1 0 0 0 0-1.25l-2-2.5a1 1 0 0 0-1.406-.156" style="fill:#000"></path><path d="M4 2C2.355 2 1 3.355 1 5v13c0 1.645 1.355 3 3 3h16c1.645 0 3-1.355 3-3V8c0-1.645-1.355-3-3-3h-7.91a1 1 0 0 1-.844-.45l-.008-.009-.802-1.191A3 3 0 0 0 7.93 2Zm0 2h3.93c.337 0 .65.167.836.45l.005.009.803 1.191.004.002A3 3 0 0 0 12.11 7H20c.564 0 1 .436 1 1v10c0 .564-.436 1-1 1H4c-.564 0-1-.436-1-1V5c0-.564.436-1 1-1" style="fill:#000"></path></symbol><symbol id="icon-code"><path d="M17.293 7.293a1 1 0 0 0 0 1.414L20.586 12l-3.293 3.293a1 1 0 0 0 0 1.414 1 1 0 0 0 1.414 0l4-4a1 1 0 0 0 0-1.414l-4-4a1 1 0 0 0-1.414 0M6 7a1 1 0 0 0-.707.293l-4 4a1 1 0 0 0 0 1.414l4 4a1 1 0 0 0 1.414 0 1 1 0 0 0 0-1.414L3.414 12l3.293-3.293a1 1 0 0 0 0-1.414A1 1 0 0 0 6 7m8.799-3.955a1 1 0 0 0-1.254.656l-5 16a1 1 0 0 0 .656 1.254 1 1 0 0 0 1.254-.656l5-16a1 1 0 0 0-.656-1.254" style="fill:#000"></path></symbol><symbol id="icon-copy"><path d="M10 7c-1.645 0-3 1.355-3 3v10c0 1.645 1.355 3 3 3h10c1.645 0 3-1.355 3-3V10c0-1.645-1.355-3-3-3Zm0 2h10c.571 0 1 .429 1 1v10c0 .571-.429 1-1 1H10c-.571 0-1-.429-1-1V10c0-.571.429-1 1-1" style="fill:#000"></path><path d="M4 1C2.355 1 1 2.355 1 4v10c0 1.645 1.355 3 3 3a1 1 0 0 0 1-1 1 1 0 0 0-1-1c-.555 0-1-.445-1-1V4c0-.555.445-1 1-1h10c.555 0 1 .445 1 1a1 1 0 0 0 1 1 1 1 0 0 0 1-1c0-1.645-1.355-3-3-3Z" style="fill:#000"></path></symbol><symbol id="icon-corner-up-left"><path d="M9 3a1 1 0 0 0-.707.293l-5 5a1 1 0 0 0 0 1.414l5 5a1 1 0 0 0 1.414 0 1 1 0 0 0 0-1.414L5.414 9l4.293-4.293a1 1 0 0 0 0-1.414A1 1 0 0 0 9 3" style="fill:#000"></path><path d="M4 8a1 1 0 0 0-1 1 1 1 0 0 0 1 1h12c1.669 0 3 1.331 3 3v7a1 1 0 0 0 1 1 1 1 0 0 0 1-1v-7c0-2.75-2.25-5-5-5Z" style="fill:#000"></path></symbol><symbol id="icon-corner-up-right"><path d="M15 3a1 1 0 0 0-.707.293 1 1 0 0 0 0 1.414L18.586 9l-4.293 4.293a1 1 0 0 0 0 1.414 1 1 0 0 0 1.414 0l5-5a1 1 0 0 0 0-1.414l-5-5A1 1 0 0 0 15 3" style="fill:#000"></path><path d="M8 8c-2.75 0-5 2.25-5 5v7a1 1 0 0 0 1 1 1 1 0 0 0 1-1v-7c0-1.669 1.331-3 3-3h12a1 1 0 0 0 1-1 1 1 0 0 0-1-1Z" style="fill:#000"></path></symbol><symbol id="icon-database-config"><path d="M2 5a1 1 0 0 0-1 1v12c0 .75.452 1.35.97 1.758.52.409 1.16.708 1.91.959 1.503.5 3.459.783 5.62.783 2.023 0 3.868-.25 5.326-.691a1 1 0 0 0 .205-1.827 4.01 4.01 0 0 1-1.974-2.802A4 4 0 0 1 13 15.5c0-1.033.386-1.963 1.023-2.672A3.98 3.98 0 0 1 17 11.5a1 1 0 0 0 1-1V6a1 1 0 0 0-1-1 1 1 0 0 0-1 1v3.717c-1.346.237-2.589.8-3.465 1.775a5.99 5.99 0 0 0-1.45 5.026c.17.99.62 1.863 1.212 2.625-.912.143-1.705.357-2.797.357-1.981 0-3.774-.277-4.986-.682-.607-.202-1.065-.441-1.305-.63C2.969 17.998 3 17.94 3 18V6a1 1 0 0 0-1-1" style="fill:#333;stroke-linecap:round;stroke-linejoin:round"></path><path d="M9.5 2.5c-2.161 0-4.117.283-5.62.783-.75.25-1.39.55-1.91.96C1.453 4.65 1 5.248 1 6s.452 1.35.97 1.758c.52.409 1.16.708 1.91.959 1.503.5 3.459.783 5.62.783s4.117-.283 5.62-.783c.75-.25 1.39-.55 1.91-.96C17.547 7.35 18 6.752 18 6s-.452-1.35-.97-1.758c-.52-.409-1.16-.708-1.91-.959-1.503-.5-3.459-.783-5.62-.783m0 2c1.981 0 3.774.277 4.986.682.607.202 1.065.441 1.305.63.24.19.209.248.209.188s.031-.002-.209.188c-.24.189-.698.428-1.305.63-1.212.405-3.005.682-4.986.682s-3.774-.277-4.986-.682c-.607-.202-1.065-.441-1.305-.63C2.969 5.998 3 5.94 3 6s-.031.002.209-.187c.24-.19.698-.43 1.305-.631C5.726 4.777 7.519 4.5 9.5 4.5M2 13a1 1 0 0 0-1 1c0 .75.452 1.35.97 1.758.52.409 1.16.708 1.91.959 1.503.5 3.459.783 5.62.783.943 0 1.849-.055 2.693-.158a1 1 0 0 0 .871-1.113 1 1 0 0 0-1.113-.872c-.76.093-1.587.143-2.451.143-1.981 0-3.774-.277-4.986-.682-.607-.202-1.065-.441-1.305-.63C2.969 13.998 3 13.94 3 14a1 1 0 0 0-1-1m0-4a1 1 0 0 0-1 1c0 .75.452 1.35.97 1.758.52.409 1.16.708 1.91.959 1.503.5 3.459.783 5.62.783 1.438 0 2.788-.129 3.97-.36a1 1 0 0 0 .792-1.171 1 1 0 0 0-1.174-.791A19 19 0 0 1 9.5 11.5c-1.981 0-3.774-.277-4.986-.682-.607-.202-1.065-.441-1.305-.63C2.969 9.998 3 9.94 3 10a1 1 0 0 0-1-1" style="fill:#333;stroke-linecap:round;stroke-linejoin:round"></path><path d="M17 9.5a6 6 0 0 0-6 6q.001.52.086 1.018a6 6 0 0 0 2.957 4.205A6 6 0 0 0 17 21.5c3.302 0 6-2.698 6-6s-2.698-6-6-6m0 2c2.221 0 4 1.779 4 4s-1.779 4-4 4c-.72 0-1.387-.188-1.969-.518a4.01 4.01 0 0 1-1.974-2.802A4 4 0 0 1 13 15.5c0-1.033.386-1.963 1.023-2.672A3.98 3.98 0 0 1 17 11.5" style="fill:#333;stroke-linecap:round;stroke-linejoin:round"></path><path d="M17 12.5a1 1 0 0 0-1 1v.27l-.232-.135a1 1 0 0 0-1.366.365 1 1 0 0 0 .366 1.365l.234.135-.234.135A1 1 0 0 0 14.402 17a1 1 0 0 0 1.366.365L16 17.23v.27a1 1 0 0 0 1 1 1 1 0 0 0 1-1v-.27l.232.135A1 1 0 0 0 19.598 17a1 1 0 0 0-.366-1.365l-.234-.135.234-.135A1 1 0 0 0 19.598 14a1 1 0 0 0-1.366-.365L18 13.77v-.27a1 1 0 0 0-1-1" style="fill:#333;stroke-linecap:round;stroke-linejoin:round"></path></symbol><symbol id="icon-datatype-api"><path d="M12 12a1 1 0 0 0-1 1v5.586l-2.293-2.293a1 1 0 0 0-1.414 0 1 1 0 0 0 0 1.414l4 4A1 1 0 0 0 13 21v-8a1 1 0 0 0-1-1" style="fill:#000"></path><path d="m15.293 16.293-4 4a1 1 0 0 0 0 1.414 1 1 0 0 0 1.414 0l4-4a1 1 0 0 0 0-1.414 1 1 0 0 0-1.414 0" style="fill:#000"></path><path d="M8.219 2.041A7.9 7.9 0 0 0 4.678 3.27C.22 6.133-.253 12.533 3.734 16.02a1 1 0 0 0 1.412-.093 1 1 0 0 0-.095-1.412A5.977 5.977 0 0 1 5.76 4.95a5.976 5.976 0 0 1 8.992 3.334 1 1 0 0 0 .959.715H17.5c1.81 0 2.948 1.118 3.357 2.512s.06 2.951-1.462 3.931a1 1 0 0 0-.3 1.383 1 1 0 0 0 1.382.299c2.253-1.45 2.93-4.035 2.3-6.176S20.18 7 17.5 7h-1.248c-1.385-3.305-4.657-5.276-8.033-4.959" style="fill:#000"></path></symbol><symbol id="icon-datatype-dictionary"><path d="M5 2C3.355 2 2 3.355 2 5v14c0 1.645 1.355 3 3 3h14c1.645 0 3-1.355 3-3V5c0-1.645-1.355-3-3-3Zm0 2h14c.571 0 1 .429 1 1v14c0 .571-.429 1-1 1H5c-.571 0-1-.429-1-1V5c0-.571.429-1 1-1" style="fill:#000"></path><path d="M7 6a1 1 0 0 0-1 1v10a1 1 0 0 0 1 1 1 1 0 0 0 1-1V7a1 1 0 0 0-1-1M11 6a1 1 0 0 0-1 1v10a1 1 0 0 0 1 1 1 1 0 0 0 1-1V7a1 1 0 0 0-1-1M14.805 6.02a1 1 0 0 0-.785 1.175l2 10a1 1 0 0 0 1.175.785 1 1 0 0 0 .785-1.175l-2-10a1 1 0 0 0-1.175-.785" style="fill:#000"></path></symbol><symbol id="icon-datatype-static"><path d="M3 2a1 1 0 0 0-1 1v16c0 1.645 1.355 3 3 3h16a1 1 0 0 0 1-1 1 1 0 0 0-1-1H5c-.564 0-1-.436-1-1V3a1 1 0 0 0-1-1" style="fill:#000"></path><path d="M7 15a1 1 0 0 0-1 1 1 1 0 0 0 1 1h8a1 1 0 0 0 1-1 1 1 0 0 0-1-1zM7 10a1 1 0 0 0-1 1 1 1 0 0 0 1 1h12a1 1 0 0 0 1-1 1 1 0 0 0-1-1zM7 5a1 1 0 0 0-1 1 1 1 0 0 0 1 1h3a1 1 0 0 0 1-1 1 1 0 0 0-1-1Z" style="fill:#000"></path></symbol><symbol id="icon-date-range"><path d="M5 3C3.355 3 2 4.355 2 6v14c0 1.645 1.355 3 3 3h14c1.645 0 3-1.355 3-3V6c0-1.645-1.355-3-3-3Zm0 2h14c.571 0 1 .429 1 1v14c0 .571-.429 1-1 1H5c-.571 0-1-.429-1-1V6c0-.571.429-1 1-1" style="fill:#000"></path><path d="M16 1a1 1 0 0 0-1 1v4a1 1 0 0 0 1 1 1 1 0 0 0 1-1V2a1 1 0 0 0-1-1M3 9a1 1 0 0 0-1 1 1 1 0 0 0 1 1h18a1 1 0 0 0 1-1 1 1 0 0 0-1-1zm5-8a1 1 0 0 0-1 1v4a1 1 0 0 0 1 1 1 1 0 0 0 1-1V2a1 1 0 0 0-1-1m3 12a1 1 0 0 0-1 1 1 1 0 0 0 1 1h6a1 1 0 0 0 1-1 1 1 0 0 0-1-1zm-4 4a1 1 0 0 0-1 1 1 1 0 0 0 1 1h6a1 1 0 0 0 1-1 1 1 0 0 0-1-1zm0-4a1 1 0 0 0-1 1 1 1 0 0 0 1 1h.01a1 1 0 0 0 1-1 1 1 0 0 0-1-1zm10 4a1 1 0 0 0-1 1 1 1 0 0 0 1 1h.01a1 1 0 0 0 1-1 1 1 0 0 0-1-1z" style="fill:#000"></path></symbol><symbol id="icon-date"><path d="M11 13a1 1 0 0 0-1 1 1 1 0 0 0 1 1v3a1 1 0 0 0 1 1 1 1 0 0 0 1-1v-4a1 1 0 0 0-1-1zm5-12a1 1 0 0 0-1 1v4a1 1 0 0 0 1 1 1 1 0 0 0 1-1V2a1 1 0 0 0-1-1M3 9a1 1 0 0 0-1 1 1 1 0 0 0 1 1h18a1 1 0 0 0 1-1 1 1 0 0 0-1-1zm5-8a1 1 0 0 0-1 1v4a1 1 0 0 0 1 1 1 1 0 0 0 1-1V2a1 1 0 0 0-1-1" style="fill:#000"></path><path d="M5 3C3.355 3 2 4.355 2 6v14c0 1.645 1.355 3 3 3h14c1.645 0 3-1.355 3-3V6c0-1.645-1.355-3-3-3Zm0 2h14c.571 0 1 .429 1 1v14c0 .571-.429 1-1 1H5c-.571 0-1-.429-1-1V6c0-.571.429-1 1-1" style="fill:#000"></path></symbol><symbol id="icon-datetime-range"><path d="M8 1a1 1 0 0 0-1 1v4a1 1 0 0 0 1 1 1 1 0 0 0 1-1V2a1 1 0 0 0-1-1m8 0a1 1 0 0 0-1 1v4a1 1 0 0 0 1 1 1 1 0 0 0 1-1V2a1 1 0 0 0-1-1" style="fill:#000"></path><path d="M5 3C3.355 3 2 4.355 2 6v14c0 1.645 1.355 3 3 3h14c1.645 0 3-1.355 3-3V6c0-1.645-1.355-3-3-3Zm0 2h14c.571 0 1 .429 1 1v14c0 .571-.429 1-1 1H5c-.571 0-1-.429-1-1V6c0-.571.429-1 1-1" style="fill:#000"></path><path d="M3 9a1 1 0 0 0-1 1 1 1 0 0 0 1 1h18a1 1 0 0 0 1-1 1 1 0 0 0-1-1zm5 4a1 1 0 0 0-1 1 1 1 0 0 0 1 1h.01a1 1 0 0 0 1-1 1 1 0 0 0-1-1zm4 0a1 1 0 0 0-1 1 1 1 0 0 0 1 1h.01a1 1 0 0 0 1-1 1 1 0 0 0-1-1zm4 0a1 1 0 0 0-1 1 1 1 0 0 0 1 1h.01a1 1 0 0 0 1-1 1 1 0 0 0-1-1zm-8 4a1 1 0 0 0-1 1 1 1 0 0 0 1 1h.01a1 1 0 0 0 1-1 1 1 0 0 0-1-1zm4 0a1 1 0 0 0-1 1 1 1 0 0 0 1 1h.01a1 1 0 0 0 1-1 1 1 0 0 0-1-1zm4 0a1 1 0 0 0-1 1 1 1 0 0 0 1 1h.01a1 1 0 0 0 1-1 1 1 0 0 0-1-1z" style="fill:#000"></path></symbol><symbol id="icon-datetime"><path d="M5 3C3.355 3 2 4.355 2 6v14c0 1.645 1.355 3 3 3h3.5a1 1 0 0 0 1-1 1 1 0 0 0-1-1H5c-.564 0-1-.436-1-1V6c0-.564.436-1 1-1h14c.564 0 1 .436 1 1v1.5a1 1 0 0 0 1 1 1 1 0 0 0 1-1V6c0-1.645-1.355-3-3-3Z" style="fill:#000"></path><path d="M16 1a1 1 0 0 0-1 1v4a1 1 0 0 0 1 1 1 1 0 0 0 1-1V2a1 1 0 0 0-1-1M8 1a1 1 0 0 0-1 1v4a1 1 0 0 0 1 1 1 1 0 0 0 1-1V2a1 1 0 0 0-1-1M3 9a1 1 0 0 0-1 1 1 1 0 0 0 1 1h5a1 1 0 0 0 1-1 1 1 0 0 0-1-1Zm13 4a1 1 0 0 0-1 1v2.3a1 1 0 0 0 .375.78l1.5 1.201a1 1 0 0 0 1.406-.156 1 1 0 0 0-.156-1.406L17 15.82V14a1 1 0 0 0-1-1" style="fill:#000"></path><path d="M16 9c-3.854 0-7 3.146-7 7s3.146 7 7 7 7-3.146 7-7-3.146-7-7-7m0 2c2.773 0 5 2.227 5 5s-2.227 5-5 5-5-2.227-5-5 2.227-5 5-5" style="fill:#000"></path></symbol><symbol id="icon-delete"><path d="M3 5a1 1 0 0 0-1 1 1 1 0 0 0 1 1h18a1 1 0 0 0 1-1 1 1 0 0 0-1-1Z" style="fill:#000"></path><path d="M5 5a1 1 0 0 0-1 1v14c0 .833.386 1.55.918 2.082S6.167 23 7 23h10c.833 0 1.55-.386 2.082-.918S20 20.833 20 20V6a1 1 0 0 0-1-1 1 1 0 0 0-1 1v14c0 .167-.114.45-.332.668S17.167 21 17 21H7c-.167 0-.45-.114-.668-.332S6 20.167 6 20V6a1 1 0 0 0-1-1" style="fill:#000"></path><path d="M10 1c-.833 0-1.55.386-2.082.918S7 3.167 7 4v2a1 1 0 0 0 1 1 1 1 0 0 0 1-1V4c0-.167.114-.45.332-.668S9.833 3 10 3h4c.167 0 .45.114.668.332S15 3.833 15 4v2a1 1 0 0 0 1 1 1 1 0 0 0 1-1V4c0-.833-.386-1.55-.918-2.082S14.833 1 14 1Zm0 9a1 1 0 0 0-1 1v6a1 1 0 0 0 1 1 1 1 0 0 0 1-1v-6a1 1 0 0 0-1-1m4 0a1 1 0 0 0-1 1v6a1 1 0 0 0 1 1 1 1 0 0 0 1-1v-6a1 1 0 0 0-1-1" style="fill:#000"></path></symbol><symbol id="icon-drag"><path d="M9 10c-1.093 0-2 .907-2 2s.907 2 2 2 2-.907 2-2-.907-2-2-2m0-7c-1.093 0-2 .907-2 2s.907 2 2 2 2-.907 2-2-.907-2-2-2m0 14c-1.093 0-2 .907-2 2s.907 2 2 2 2-.907 2-2-.907-2-2-2m6-7c-1.093 0-2 .907-2 2s.907 2 2 2 2-.907 2-2-.907-2-2-2m0-7c-1.093 0-2 .907-2 2s.907 2 2 2 2-.907 2-2-.907-2-2-2m0 14c-1.093 0-2 .907-2 2s.907 2 2 2 2-.907 2-2-.907-2-2-2" style="fill:#000"></path></symbol><symbol id="icon-eye"><path d="M12 4C7.58 4 3.12 6.464 1.137 11.271l-.012.034a2 2 0 0 0 0 1.39l.012.014v.02C3.119 17.536 7.58 20 12 20s8.88-2.464 10.863-7.271l.012-.034a2 2 0 0 0 0-1.39l-.012-.034C20.881 6.464 16.42 4 12 4m0 2c3.679 0 7.312 1.964 8.994 6-1.682 4.036-5.315 6-8.994 6s-7.312-1.964-8.994-6C4.688 7.964 8.32 6 12 6" style="fill:#000"></path><path d="M12 8c-2.197 0-4 1.803-4 4s1.803 4 4 4 4-1.803 4-4-1.803-4-4-4m0 2c1.116 0 2 .884 2 2s-.884 2-2 2-2-.884-2-2 .884-2 2-2" style="fill:#000"></path></symbol><symbol id="icon-form"><path d="M3.5 2A2.517 2.517 0 0 0 1 4.5v15C1 20.868 2.132 22 3.5 22h17c1.368 0 2.5-1.132 2.5-2.5v-15C23 3.132 21.868 2 20.5 2Zm0 2h17c.294 0 .5.206.5.5v15c0 .294-.206.5-.5.5h-17a.48.48 0 0 1-.5-.5v-15c0-.294.206-.5.5-.5" style="fill:#333;stroke-linecap:round;stroke-linejoin:round"></path><path d="M2 6a1 1 0 0 0-1 1 1 1 0 0 0 1 1h20a1 1 0 0 0 1-1 1 1 0 0 0-1-1Zm8 5a1 1 0 0 0-1 1 1 1 0 0 0 1 1h8a1 1 0 0 0 1-1 1 1 0 0 0-1-1zm0 4a1 1 0 0 0-1 1 1 1 0 0 0 1 1h8a1 1 0 0 0 1-1 1 1 0 0 0-1-1zm-4-4a1 1 0 0 0-1 1 1 1 0 0 0 1 1h1a1 1 0 0 0 1-1 1 1 0 0 0-1-1Zm0 4a1 1 0 0 0-1 1 1 1 0 0 0 1 1h1a1 1 0 0 0 1-1 1 1 0 0 0-1-1Z" style="fill:#333;stroke-linecap:round;stroke-linejoin:round"></path></symbol><symbol id="icon-history-1"><path d="M16 9c-3.854 0-7 3.146-7 7s3.146 7 7 7 7-3.146 7-7-3.146-7-7-7m0 2c2.773 0 5 2.227 5 5s-2.227 5-5 5-5-2.227-5-5 2.227-5 5-5" style="fill:#000"></path><path d="M4 2C2.355 2 1 3.355 1 5v13c0 1.645 1.355 3 3 3h3a1 1 0 0 0 1-1 1 1 0 0 0-1-1H4c-.564 0-1-.436-1-1V5c0-.564.436-1 1-1h3.91a1 1 0 0 1 .844.45l.008.009.802 1.191A3 3 0 0 0 12.07 7H20c.564 0 1 .436 1 1a1 1 0 0 0 1 1 1 1 0 0 0 1-1c0-1.645-1.355-3-3-3h-7.93a1 1 0 0 1-.836-.45l-.006-.009-.802-1.191-.004-.002A3 3 0 0 0 7.89 2Z" style="fill:#000"></path><path d="M16 13a1 1 0 0 0-1 1v2a1 1 0 0 0 .293.707l1 1a1 1 0 0 0 1.414 0 1 1 0 0 0 0-1.414L17 15.586V14a1 1 0 0 0-1-1" style="fill:#000"></path></symbol><symbol id="icon-history"><path d="M11.996 2a10.75 10.75 0 0 0-7.432 3.021l-.011.012-2.26 2.26a1 1 0 0 0 0 1.414 1 1 0 0 0 1.414 0l2.248-2.248A8.75 8.75 0 0 1 12 4c3.606 0 6.233 2.142 7.39 4.938 1.159 2.795.816 6.169-1.734 8.718s-5.923 2.893-8.718 1.735S4 15.606 4 12a1 1 0 0 0-1-1 1 1 0 0 0-1 1c0 4.412 2.705 7.802 6.174 9.238 3.469 1.437 7.777.952 10.896-2.168s3.605-7.427 2.168-10.896S16.412 2 12 2z" style="fill:#000"></path><path d="M3 2a1 1 0 0 0-1 1v5a1 1 0 0 0 1 1h5a1 1 0 0 0 1-1 1 1 0 0 0-1-1H4V3a1 1 0 0 0-1-1m9 4a1 1 0 0 0-1 1v5a1 1 0 0 0 .553.895l4 2a1 1 0 0 0 1.342-.448 1 1 0 0 0-.448-1.342L13 11.383V7a1 1 0 0 0-1-1" style="fill:#000"></path></symbol><symbol id="icon-input-number"><path d="M11 3a1 1 0 0 0-1 1 1 1 0 0 0 1 1h1c1.116 0 2 .884 2 2h2c0-1.116.884-2 2-2h1a1 1 0 0 0 1-1 1 1 0 0 0-1-1h-1c-1.21 0-2.264.576-3 1.436C14.264 3.576 13.21 3 12 3Zm4 13.014A1 1 0 0 0 14 17c0 1.116-.884 2-2 2h-1a1 1 0 0 0-1 1 1 1 0 0 0 1 1h1c1.21 0 2.264-.576 3-1.436.736.86 1.79 1.436 3 1.436h1a1 1 0 0 0 1-1 1 1 0 0 0-1-1h-1c-1.116 0-2-.884-2-2a1 1 0 0 0-1-.986M19 7a1 1 0 0 0-1 1 1 1 0 0 0 1 1h1c.564 0 1 .436 1 1v4c0 .564-.436 1-1 1h-1a1 1 0 0 0-1 1 1 1 0 0 0 1 1h1c1.645 0 3-1.355 3-3v-4c0-1.645-1.355-3-3-3ZM4 7c-1.645 0-3 1.355-3 3v4c0 1.645 1.355 3 3 3h7a1 1 0 0 0 1-1 1 1 0 0 0-1-1H4c-.564 0-1-.436-1-1v-4c0-.564.436-1 1-1h7a1 1 0 0 0 1-1 1 1 0 0 0-1-1Z" style="fill:#000"></path><path d="M15 6a1 1 0 0 0-1 1v10a1 1 0 0 0 1 1 1 1 0 0 0 1-1V7a1 1 0 0 0-1-1m-9.213 4.08a.4.4 0 0 0-.41.02l-1.2.8a.4.4 0 0 0-.11.555.4.4 0 0 0 .554.111l.578-.386v2.453a.4.4 0 0 0 .4.4.4.4 0 0 0 .399-.4v-3.2a.4.4 0 0 0-.21-.353m2.599.031c-.39-.173-.89-.048-1.28.34a.366.366 0 0 0 0 .518.366.366 0 0 0 .518 0c.245-.245.379-.228.465-.19s.178.157.178.352c0 .255-.052.373-.13.48-.077.108-.205.208-.372.348-.336.28-.766.771-.766 1.707a.366.366 0 0 0 .365.365h1.27A.366.366 0 0 0 9 13.666a.366.366 0 0 0-.365-.367h-.742c.08-.296.138-.609.341-.778.15-.124.338-.26.498-.482S9 11.51 9 11.131c0-.439-.224-.847-.613-1.02" style="fill:#000"></path><path d="M18.705 9.107a3.8 3.8 0 0 0-1.713.532 1 1 0 0 0-.353 1.369 1 1 0 0 0 1.369.353c.591-.348 1.098-.312 1.453-.144.355.167.539.433.539.783 0 .564-.436 1-1 1a1 1 0 0 0-1 1 1 1 0 0 0 1 1c1.645 0 3-1.355 3-3 0-1.15-.716-2.134-1.686-2.592a3.3 3.3 0 0 0-1.609-.3" style="fill:#000" transform="matrix(.33702 0 0 .3976 4.227 6.412)"></path><path d="M19 13a1 1 0 0 0-1 1 1 1 0 0 0 1 1c.564 0 1 .436 1 1 0 .53-.264.898-.66 1.076s-.97.2-1.74-.377a1 1 0 0 0-1.4.201 1 1 0 0 0 .2 1.4c1.23.924 2.656 1.097 3.76.6C21.264 18.404 22 17.27 22 16c0-1.645-1.355-3-3-3" style="fill:#000" transform="matrix(.33702 0 0 .3976 4.227 6.412)"></path></symbol><symbol id="icon-input-password"><path d="M4 5C2.355 5 1 6.355 1 8v8c0 1.645 1.355 3 3 3h16c1.645 0 3-1.355 3-3V8c0-1.645-1.355-3-3-3Zm0 2h16c.571 0 1 .429 1 1v8c0 .571-.429 1-1 1H4c-.571 0-1-.429-1-1V8c0-.571.429-1 1-1" style="fill:#000"></path><path d="M12 11a1 1 0 0 0-1 1 1 1 0 0 0 1 1h.01a1 1 0 0 0 1-1 1 1 0 0 0-1-1zm5 0a1 1 0 0 0-1 1 1 1 0 0 0 1 1h.01a1 1 0 0 0 1-1 1 1 0 0 0-1-1zM7 11a1 1 0 0 0-1 1 1 1 0 0 0 1 1h.01a1 1 0 0 0 1-1 1 1 0 0 0-1-1z" style="fill:#000"></path></symbol><symbol id="icon-input"><path d="M5 3a1 1 0 0 0-1 1 1 1 0 0 0 1 1h1c1.116 0 2 .884 2 2a1 1 0 0 0 2 0c0-1.116.884-2 2-2h1a1 1 0 0 0 1-1 1 1 0 0 0-1-1h-1c-1.21 0-2.264.576-3 1.436C8.264 3.576 7.21 3 6 3Zm4 13.014A1 1 0 0 0 8 17c0 1.116-.884 2-2 2H5a1 1 0 0 0-1 1 1 1 0 0 0 1 1h1c1.21 0 2.264-.576 3-1.436.736.86 1.79 1.436 3 1.436h1a1 1 0 0 0 1-1 1 1 0 0 0-1-1h-1c-1.116 0-2-.884-2-2a1 1 0 0 0-1-.986M4 7c-1.645 0-3 1.355-3 3v4c0 1.645 1.355 3 3 3h1a1 1 0 0 0 1-1 1 1 0 0 0-1-1H4c-.564 0-1-.436-1-1v-4c0-.564.436-1 1-1h1a1 1 0 0 0 1-1 1 1 0 0 0-1-1Zm9 0a1 1 0 0 0-1 1 1 1 0 0 0 1 1h7c.564 0 1 .436 1 1v4c0 .564-.436 1-1 1h-7a1 1 0 0 0-1 1 1 1 0 0 0 1 1h7c1.645 0 3-1.355 3-3v-4c0-1.645-1.355-3-3-3Z" style="fill:#000"></path><path d="M9 6a1 1 0 0 0-1 1v10a1 1 0 0 0 1 1 1 1 0 0 0 1-1V7a1 1 0 0 0-1-1" style="fill:#000"></path></symbol><symbol id="icon-laptop"><path d="M6 4C4.355 4 3 5.355 3 7v8.762l-1.174 2.34c-.652 1.297.349 2.908 1.801 2.898h16.746c1.452.01 2.453-1.601 1.8-2.898V18.1L21 15.762V7c0-1.645-1.355-3-3-3Zm0 2h12c.564 0 1 .436 1 1v8H5V7c0-.564.436-1 1-1M4.617 17h14.766l1.004 1.998V19H3.613v-.002z" style="fill:#000"></path></symbol><symbol id="icon-list"><path d="M3 11a1 1 0 0 0-1 1 1 1 0 0 0 1 1h.01a1 1 0 0 0 1-1 1 1 0 0 0-1-1zm0 6a1 1 0 0 0-1 1 1 1 0 0 0 1 1h.01a1 1 0 0 0 1-1 1 1 0 0 0-1-1zM3 5a1 1 0 0 0-1 1 1 1 0 0 0 1 1h.01a1 1 0 0 0 1-1 1 1 0 0 0-1-1zm5 6a1 1 0 0 0-1 1 1 1 0 0 0 1 1h13a1 1 0 0 0 1-1 1 1 0 0 0-1-1zm0 6a1 1 0 0 0-1 1 1 1 0 0 0 1 1h13a1 1 0 0 0 1-1 1 1 0 0 0-1-1zM8 5a1 1 0 0 0-1 1 1 1 0 0 0 1 1h13a1 1 0 0 0 1-1 1 1 0 0 0-1-1Z" style="fill:#000"></path></symbol><symbol id="icon-phone"><path d="M7 1C5.355 1 4 2.355 4 4v16c0 1.645 1.355 3 3 3h10c1.645 0 3-1.355 3-3V4c0-1.645-1.355-3-3-3Zm0 2h10c.571 0 1 .429 1 1v16c0 .571-.429 1-1 1H7c-.571 0-1-.429-1-1V4c0-.571.429-1 1-1" style="fill:#000"></path><path d="M12 17a1 1 0 0 0-1 1 1 1 0 0 0 1 1h.01a1 1 0 0 0 1-1 1 1 0 0 0-1-1z" style="fill:#000"></path></symbol><symbol id="icon-pin-off"><path d="M12 16a1 1 0 0 0-1 1v5a1 1 0 0 0 1 1 1 1 0 0 0 1-1v-5a1 1 0 0 0-1-1M7.89 1a1 1 0 0 0-1 1 1 1 0 0 0 1 1H16c.417 0 .602.12.752.29.15.168.248.432.248.71s-.098.542-.248.71c-.15.17-.335.29-.752.29-1.093 0-2 .907-2 2v2.34a1 1 0 0 0 1 1 1 1 0 0 0 1-1V7c.917 0 1.731-.38 2.248-.96A3.05 3.05 0 0 0 19 4a3.05 3.05 0 0 0-.752-2.04C17.731 1.38 16.917 1 16 1ZM2 1a1 1 0 0 0-.707.293 1 1 0 0 0 0 1.414l20 20a1 1 0 0 0 1.414 0 1 1 0 0 0 0-1.414l-20-20A1 1 0 0 0 2 1" style="fill:#000"></path><path d="M9 8a1 1 0 0 0-1 1v1.76a.99.99 0 0 1-.555.894l-.006.004-1.775.897A3 3 0 0 0 4 15.24V16c0 1.093.907 2 2 2h11a1 1 0 0 0 1-1 1 1 0 0 0-1-1H6v-.76c0-.381.213-.724.555-.894l.006-.004 1.775-.897A3 3 0 0 0 10 10.76V9a1 1 0 0 0-1-1" style="fill:#000"></path></symbol><symbol id="icon-pin"><path d="M12 16a1 1 0 0 0-1 1v5a1 1 0 0 0 1 1 1 1 0 0 0 1-1v-5a1 1 0 0 0-1-1" style="fill:#000"></path><path d="M8 1c-.917 0-1.731.38-2.248.96A3.05 3.05 0 0 0 5 4c0 .722.235 1.458.752 2.04C6.269 6.62 7.083 7 8 7v3.76a.99.99 0 0 1-.555.894l-.006.004-1.775.897A3 3 0 0 0 4 15.24V16c0 1.093.907 2 2 2h12c1.093 0 2-.907 2-2v-.76c0-1.136-.646-2.18-1.664-2.685l-1.775-.897-.006-.004A.99.99 0 0 1 16 10.76V7c.917 0 1.731-.38 2.248-.96A3.05 3.05 0 0 0 19 4a3.05 3.05 0 0 0-.752-2.04C17.731 1.38 16.917 1 16 1Zm0 2h8c.417 0 .602.12.752.29.15.168.248.432.248.71s-.098.542-.248.71c-.15.17-.335.29-.752.29-1.093 0-2 .907-2 2v3.76c0 1.136.646 2.18 1.664 2.685l1.775.897.006.004c.342.17.555.513.555.894V16H6v-.76c0-.381.213-.724.555-.894l.006-.004 1.775-.897A3 3 0 0 0 10 10.76V7c0-1.093-.907-2-2-2-.417 0-.602-.12-.752-.29A1.1 1.1 0 0 1 7 4c0-.278.098-.542.248-.71.15-.17.335-.29.752-.29" style="fill:#000"></path></symbol><symbol id="icon-puzzle"><path d="M9.5 1c-2.197 0-4 1.803-4 4H2a1 1 0 0 0-1 1v6a1 1 0 0 0 1 1h2c1.116 0 2 .884 2 2s-.884 2-2 2H2a1 1 0 0 0-1 1v4a1 1 0 0 0 1 1h15a1 1 0 0 0 1-1v-3h1c2.197 0 4-1.803 4-4s-1.803-4-4-4h-1V6a1 1 0 0 0-1-1h-3.5c0-2.197-1.803-4-4-4m0 2c1.116 0 2 .884 2 2v1a1 1 0 0 0 1 1H16v5a1 1 0 0 0 1 1h2c1.116 0 2 .884 2 2s-.884 2-2 2h-2a1 1 0 0 0-1 1v3H3v-2h1c2.197 0 4-1.803 4-4s-1.803-4-4-4H3V7h3.5a1 1 0 0 0 1-1V5c0-1.116.884-2 2-2" style="fill:#333;stroke-linejoin:round"></path></symbol><symbol id="icon-radio"><path d="M12 1C5.937 1 1 5.937 1 12s4.937 11 11 11 11-4.937 11-11S18.063 1 12 1m0 2c4.982 0 9 4.018 9 9s-4.018 9-9 9-9-4.018-9-9 4.018-9 9-9" style="fill:#333"></path><path d="M12 7c-2.75 0-5 2.25-5 5s2.25 5 5 5 5-2.25 5-5-2.25-5-5-5m0 2c1.669 0 3 1.331 3 3s-1.331 3-3 3-3-1.331-3-3 1.331-3 3-3" style="fill:#333;stroke-linejoin:round"></path></symbol><symbol id="icon-redo"><path d="M21 6a1 1 0 0 0-1 1v5h-5a1 1 0 0 0-1 1 1 1 0 0 0 1 1h6a1 1 0 0 0 1-1V7a1 1 0 0 0-1-1" style="fill:#000"></path><path d="M12 7C6.489 7 2 11.489 2 17a1 1 0 0 0 1 1 1 1 0 0 0 1-1 7.985 7.985 0 0 1 7.998-8 8 8 0 0 1 5.334 2.045l2.998 2.7a1 1 0 0 0 1.414-.075 1 1 0 0 0-.074-1.414l-3-2.7-.002-.001A10 10 0 0 0 12.002 7z" style="fill:#000"></path></symbol><symbol id="icon-restore"><path d="M10.646 7.084c-1.868.25-3.716 1.043-5.312 2.47l-.004.003-3 2.699a1 1 0 0 0-.074 1.414 1 1 0 0 0 1.414.074l2.996-2.7.004-.001c2.603-2.326 5.894-2.545 8.592-1.34C17.96 10.91 19.997 13.507 20 17a1 1 0 0 0 1 1 1 1 0 0 0 1-1c-.004-4.282-2.571-7.626-5.922-9.123a10.1 10.1 0 0 0-5.432-.793" style="fill:#000"></path><path d="M3 6a1 1 0 0 0-1 1v6a1 1 0 0 0 1 1h6a1 1 0 0 0 1-1 1 1 0 0 0-1-1H4V7a1 1 0 0 0-1-1m9 9c-1.093 0-2 .907-2 2s.907 2 2 2 2-.907 2-2-.907-2-2-2" style="fill:#000"></path></symbol><symbol id="icon-select-1"><path d="m9.2 26.4-2.4 3.2 16 12a2 2 0 0 0 2.4 0l16-12-2.4-3.2L24 37.5Z" style="fill:#333;stroke-linejoin:round" transform="scale(.5)"></path><path d="M8 8v4h32V8Zm0 8v4h32v-4z" style="fill:#333" transform="scale(.5)"></path></symbol><symbol id="icon-select"><path d="M5 2C3.355 2 2 3.355 2 5v14c0 1.645 1.355 3 3 3h14c1.645 0 3-1.355 3-3V5c0-1.645-1.355-3-3-3Zm0 2h14c.564 0 1 .436 1 1v14c0 .564-.436 1-1 1H5c-.564 0-1-.436-1-1V5c0-.564.436-1 1-1" style="fill:#000"></path><path d="M9 10a1 1 0 0 0-.707.293 1 1 0 0 0 0 1.414l3 3a1 1 0 0 0 1.414 0l3-3a1 1 0 0 0 0-1.414 1 1 0 0 0-1.414 0L12 12.586l-2.293-2.293A1 1 0 0 0 9 10" style="fill:#000"></path></symbol><symbol id="icon-switch-left"><path d="M8 5c-3.86 0-7 3.14-7 7s3.14 7 7 7h8c3.86 0 7-3.14 7-7s-3.14-7-7-7zm0 2h8c2.787 0 5 2.213 5 5s-2.213 5-5 5H8c-2.787 0-5-2.213-5-5s2.213-5 5-5" style="fill:#000"></path><path d="M8 9c-1.645 0-3 1.355-3 3s1.355 3 3 3 3-1.355 3-3-1.355-3-3-3m0 2c.564 0 1 .436 1 1s-.436 1-1 1-1-.436-1-1 .436-1 1-1" style="fill:#000"></path></symbol><symbol id="icon-switch-right"><path d="M8 5c-3.86 0-7 3.14-7 7s3.14 7 7 7h8c3.86 0 7-3.14 7-7s-3.14-7-7-7zm0 2h8c2.787 0 5 2.213 5 5s-2.213 5-5 5H8c-2.787 0-5-2.213-5-5s2.213-5 5-5" style="fill:#000"></path><path d="M16 9c-1.645 0-3 1.355-3 3s1.355 3 3 3 3-1.355 3-3-1.355-3-3-3m0 2c.564 0 1 .436 1 1s-.436 1-1 1-1-.436-1-1 .436-1 1-1" style="fill:#000"></path></symbol><symbol id="icon-table"><path d="M5 2C3.355 2 2 3.355 2 5v14c0 1.645 1.355 3 3 3h14c1.645 0 3-1.355 3-3V5c0-1.645-1.355-3-3-3Zm0 2h14c.571 0 1 .429 1 1v14c0 .571-.429 1-1 1H5c-.571 0-1-.429-1-1V5c0-.571.429-1 1-1" style="fill:#000"></path><path d="M3 8a1 1 0 0 0-1 1 1 1 0 0 0 1 1h18a1 1 0 0 0 1-1 1 1 0 0 0-1-1Zm0 6a1 1 0 0 0-1 1 1 1 0 0 0 1 1h18a1 1 0 0 0 1-1 1 1 0 0 0-1-1z" style="fill:#000"></path><path d="M9 8a1 1 0 0 0-1 1v12a1 1 0 0 0 1 1 1 1 0 0 0 1-1V9a1 1 0 0 0-1-1m6 0a1 1 0 0 0-1 1v12a1 1 0 0 0 1 1 1 1 0 0 0 1-1V9a1 1 0 0 0-1-1" style="fill:#000"></path></symbol><symbol id="icon-tablet"><path d="M6 1C4.355 1 3 2.355 3 4v16c0 1.645 1.355 3 3 3h12c1.645 0 3-1.355 3-3V4c0-1.645-1.355-3-3-3Zm0 2h12c.571 0 1 .429 1 1v16c0 .571-.429 1-1 1H6c-.571 0-1-.429-1-1V4c0-.571.429-1 1-1" style="fill:#000"></path><path d="M12 17a1 1 0 0 0-1 1 1 1 0 0 0 1 1h.01a1 1 0 0 0 1-1 1 1 0 0 0-1-1z" style="fill:#000"></path></symbol><symbol id="icon-textarea"><path d="M5 3a1 1 0 0 0-1 1 1 1 0 0 0 1 1h1c1.116 0 2 .884 2 2a1 1 0 0 0 2 0c0-1.116.884-2 2-2h1a1 1 0 0 0 1-1 1 1 0 0 0-1-1h-1c-1.21 0-2.264.576-3 1.436C8.264 3.576 7.21 3 6 3Zm4 13.014A1 1 0 0 0 8 17c0 1.116-.884 2-2 2H5a1 1 0 0 0-1 1 1 1 0 0 0 1 1h1c1.21 0 2.264-.576 3-1.436.736.86 1.79 1.436 3 1.436h1a1 1 0 0 0 1-1 1 1 0 0 0-1-1h-1c-1.116 0-2-.884-2-2a1 1 0 0 0-1-.986M4 7c-1.645 0-3 1.355-3 3v4c0 1.645 1.355 3 3 3h1a1 1 0 0 0 1-1 1 1 0 0 0-1-1H4c-.564 0-1-.436-1-1v-4c0-.564.436-1 1-1h1a1 1 0 0 0 1-1 1 1 0 0 0-1-1Zm9 0a1 1 0 0 0-1 1 1 1 0 0 0 1 1h7c.564 0 1 .436 1 1v4c0 .564-.436 1-1 1h-7a1 1 0 0 0-1 1 1 1 0 0 0 1 1h7c1.645 0 3-1.355 3-3v-4c0-1.645-1.355-3-3-3Z" style="fill:#000"></path><path d="M9 6a1 1 0 0 0-1 1v10a1 1 0 0 0 1 1 1 1 0 0 0 1-1V7a1 1 0 0 0-1-1" style="fill:#000"></path><path d="M20.076 10.671c0-.182-.24-.269-.373-.135l-3.16 3.184c-.127.128-.03.335.158.335h3.16c.118 0 .215-.09.215-.2z" style="clip-rule:evenodd;fill:#333;fill-rule:evenodd"></path><path d="M20.014 10.299a.43.43 0 0 0-.457.092l-3.16 3.183a.41.41 0 0 0-.08.45.43.43 0 0 0 .384.238h3.16a.417.417 0 0 0 .422-.407v-3.183a.4.4 0 0 0-.27-.373m-.145.373v3.183c0-.01.007-.007-.008-.007h-3.154l3.143-3.166c.012-.013.02-.01.02-.01" style="clip-rule:evenodd;fill:#333;fill-rule:evenodd"></path></symbol><symbol id="icon-time-range"><path d="M12 1C5.937 1 1 5.937 1 12s4.937 11 11 11 11-4.937 11-11S18.063 1 12 1m0 2c4.982 0 9 4.018 9 9s-4.018 9-9 9-9-4.018-9-9 4.018-9 9-9" style="fill:#000"></path><path d="M12 5a1 1 0 0 0-1 1v5H7.5a1 1 0 0 0-1 1 1 1 0 0 0 1 1H12a1 1 0 0 0 1-1V6a1 1 0 0 0-1-1" style="fill:#000"></path></symbol><symbol id="icon-time"><path d="M12 1C5.937 1 1 5.937 1 12s4.937 11 11 11 11-4.937 11-11S18.063 1 12 1m0 2c4.982 0 9 4.018 9 9s-4.018 9-9 9-9-4.018-9-9 4.018-9 9-9" style="fill:#000"></path><path d="M12 5a1 1 0 0 0-1 1v6a1 1 0 0 0 1 1h4.5a1 1 0 0 0 1-1 1 1 0 0 0-1-1H13V6a1 1 0 0 0-1-1" style="fill:#000"></path></symbol><symbol id="icon-tree-1"><path d="M13 11a1 1 0 0 0-1 1 1 1 0 0 0 1 1h8a1 1 0 0 0 1-1 1 1 0 0 0-1-1zM8 5a1 1 0 0 0-1 1 1 1 0 0 0 1 1h13a1 1 0 0 0 1-1 1 1 0 0 0-1-1Zm5 12a1 1 0 0 0-1 1 1 1 0 0 0 1 1h8a1 1 0 0 0 1-1 1 1 0 0 0-1-1zM3 5a1 1 0 0 0-1 1v4c0 1.645 1.355 3 3 3h3a1 1 0 0 0 1-1 1 1 0 0 0-1-1H5c-.555 0-1-.445-1-1V6a1 1 0 0 0-1-1" style="fill:#000"></path><path d="M3 9a1 1 0 0 0-1 1v6c0 1.645 1.355 3 3 3h3a1 1 0 0 0 1-1 1 1 0 0 0-1-1H5c-.555 0-1-.445-1-1v-6a1 1 0 0 0-1-1" style="fill:#000"></path></symbol><symbol id="icon-tree-2"><path d="M13 2c-1.093 0-2 .907-2 2v5c0 1.093.907 2 2 2h7c1.093 0 2-.907 2-2V6c0-1.093-.907-2-2-2h-2.5l-.9-1.2A2 2 0 0 0 15 2Zm0 2h2l.9 1.2c.378.502.971.8 1.6.8H20v3h-7zm0 9c-1.093 0-2 .907-2 2v5c0 1.093.907 2 2 2h7c1.093 0 2-.907 2-2v-3c0-1.093-.907-2-2-2h-2.887l-.416-.844.02.043A2 2 0 0 0 14.88 13Zm0 2h1.883l.021.043.42.85.002.007a2.01 2.01 0 0 0 1.762 1.1H20v3h-7zM3 4a1 1 0 0 0-1 1c0 1.645 1.355 3 3 3h3a1 1 0 0 0 1-1 1 1 0 0 0-1-1H5c-.564 0-1-.436-1-1a1 1 0 0 0-1-1" style="fill:#000"></path><path d="M3 2a1 1 0 0 0-1 1v13c0 1.645 1.355 3 3 3h3a1 1 0 0 0 1-1 1 1 0 0 0-1-1H5c-.564 0-1-.436-1-1V3a1 1 0 0 0-1-1" style="fill:#000"></path></symbol><symbol id="icon-tree"><path d="M8.662 9.129a.984.984 0 0 0-.984.984v3.772a.984.984 0 0 0 .984.984h10.272a.984.984 0 0 0 .984-.984v-3.772a.984.984 0 0 0-.984-.984Zm.984 1.969h8.303V12.9H9.646Zm-.984-8.571a.984.984 0 0 0-.984.985v3.773a.984.984 0 0 0 .984.985h7.19a.984.984 0 0 0 .984-.985V3.512a.984.984 0 0 0-.984-.985zm.984 1.97h5.221V6.3h-5.22ZM8.662 15.73a.984.984 0 0 0-.984.985v3.771a.984.984 0 0 0 .984.985h13.354a.984.984 0 0 0 .984-.985v-3.771a.984.984 0 0 0-.984-.985zm.984 1.97h11.385v1.802H9.646Z" style="fill:#333;stroke-linejoin:round"></path><path d="M1.984 4.414v1.969h6.164V4.414zm0 6.602v1.968h6.164v-1.968zm0 6.601v1.967h6.164v-1.967z" style="fill:#333;stroke-linejoin:round"></path><path d="M1 2.568V21.43h1.969V2.568Z" style="fill:#333;stroke-linejoin:round"></path></symbol><symbol id="icon-undo"><path d="M3 6a1 1 0 0 0-1 1v6a1 1 0 0 0 1 1h6a1 1 0 0 0 1-1 1 1 0 0 0-1-1H4V7a1 1 0 0 0-1-1" style="fill:#000"></path><path d="M11.998 7a10 10 0 0 0-6.666 2.555l-.002.002-3 2.699a1 1 0 0 0-.074 1.414 1 1 0 0 0 1.414.074l2.998-2.7.002-.001A8 8 0 0 1 12 9c4.43 0 8 3.57 8 8a1 1 0 0 0 1 1 1 1 0 0 0 1-1c0-5.511-4.489-10-10-10z" style="fill:#000"></path></symbol><symbol id="icon-upload-1"><path d="M4 2C2.355 2 1 3.355 1 5v13c0 1.645 1.355 3 3 3h16c1.645 0 3-1.355 3-3V8c0-1.645-1.355-3-3-3h-7.91a1 1 0 0 1-.844-.45l-.008-.009-.802-1.191A3 3 0 0 0 7.93 2Zm0 2h3.93c.337 0 .65.167.836.45l.005.009.803 1.191.004.002A3 3 0 0 0 12.11 7H20c.564 0 1 .436 1 1v10c0 .564-.436 1-1 1H4c-.564 0-1-.436-1-1V5c0-.564.436-1 1-1" style="fill:#000"></path><path d="M12 9a1 1 0 0 0-1 1v6a1 1 0 0 0 1 1 1 1 0 0 0 1-1v-6a1 1 0 0 0-1-1" style="fill:#000"></path><path d="m11.293 9.293-3 3a1 1 0 0 0 0 1.414 1 1 0 0 0 1.414 0L12 11.414l2.293 2.293a1 1 0 0 0 1.414 0 1 1 0 0 0 0-1.414l-3-3a1 1 0 0 0-1.414 0" style="fill:#000"></path></symbol><symbol id="icon-upload"><path d="M3 14a1 1 0 0 0-1 1v4c0 1.645 1.355 3 3 3h14c1.645 0 3-1.355 3-3v-4a1 1 0 0 0-1-1 1 1 0 0 0-1 1v4c0 .564-.436 1-1 1H5c-.564 0-1-.436-1-1v-4a1 1 0 0 0-1-1m8.293-11.707-5 5a1 1 0 0 0 0 1.414 1 1 0 0 0 1.414 0L12 4.414l4.293 4.293a1 1 0 0 0 1.414 0 1 1 0 0 0 0-1.414l-5-5a1 1 0 0 0-1.414 0" style="fill:#000"></path><path d="M12 2a1 1 0 0 0-1 1v12a1 1 0 0 0 1 1 1 1 0 0 0 1-1V3a1 1 0 0 0-1-1" style="fill:#000"></path></symbol></svg>