<svg xmlns="http://www.w3.org/2000/svg" width="24" height="24" fill="none" stroke="currentColor" stroke-linecap="round" stroke-linejoin="round" stroke-width="1" class="lucide lucide-folder-code"><path d="M10.625 9.719a1 1 0 0 0-1.406.156l-2 2.5a1 1 0 0 0 0 1.25l2 2.5a1 1 0 0 0 1.406.156 1 1 0 0 0 .156-1.406L9.281 13l1.5-1.875a1 1 0 0 0-.156-1.406m2.75 0a1 1 0 0 0-.156 1.406l1.5 1.875-1.5 1.875a1 1 0 0 0 .156 1.406 1 1 0 0 0 1.406-.156l2-2.5a1 1 0 0 0 0-1.25l-2-2.5a1 1 0 0 0-1.406-.156" style="fill:#000"/><path d="M4 2C2.355 2 1 3.355 1 5v13c0 1.645 1.355 3 3 3h16c1.645 0 3-1.355 3-3V8c0-1.645-1.355-3-3-3h-7.91a1 1 0 0 1-.844-.45l-.008-.009-.802-1.191A3 3 0 0 0 7.93 2Zm0 2h3.93c.337 0 .65.167.836.45l.005.009.803 1.191.004.002A3 3 0 0 0 12.11 7H20c.564 0 1 .436 1 1v10c0 .564-.436 1-1 1H4c-.564 0-1-.436-1-1V5c0-.564.436-1 1-1" style="fill:#000"/></svg>