<svg xmlns="http://www.w3.org/2000/svg" width="24" height="24" fill="none" stroke="currentColor" stroke-linecap="round" stroke-linejoin="round" stroke-width="1" class="lucide lucide-code-xml"><path d="M17.293 7.293a1 1 0 0 0 0 1.414L20.586 12l-3.293 3.293a1 1 0 0 0 0 1.414 1 1 0 0 0 1.414 0l4-4a1 1 0 0 0 0-1.414l-4-4a1 1 0 0 0-1.414 0M6 7a1 1 0 0 0-.707.293l-4 4a1 1 0 0 0 0 1.414l4 4a1 1 0 0 0 1.414 0 1 1 0 0 0 0-1.414L3.414 12l3.293-3.293a1 1 0 0 0 0-1.414A1 1 0 0 0 6 7m8.799-3.955a1 1 0 0 0-1.254.656l-5 16a1 1 0 0 0 .656 1.254 1 1 0 0 0 1.254-.656l5-16a1 1 0 0 0-.656-1.254" style="fill:#000"/></svg>