<svg xmlns="http://www.w3.org/2000/svg" width="24" height="24" fill="none" stroke="currentColor" stroke-linecap="round" stroke-linejoin="round" stroke-width="1" class="lucide lucide-square-code"><path d="M10.625 8.719a1 1 0 0 0-1.406.156l-2 2.5a1 1 0 0 0 0 1.25l2 2.5a1 1 0 0 0 1.406.156 1 1 0 0 0 .156-1.406L9.281 12l1.5-1.875a1 1 0 0 0-.156-1.406m2.75 0a1 1 0 0 0-.156 1.406l1.5 1.875-1.5 1.875a1 1 0 0 0 .156 1.406 1 1 0 0 0 1.406-.156l2-2.5a1 1 0 0 0 0-1.25l-2-2.5a1 1 0 0 0-1.406-.156" style="fill:#000"/><path d="M5 2C3.355 2 2 3.355 2 5v14c0 1.645 1.355 3 3 3h14c1.645 0 3-1.355 3-3V5c0-1.645-1.355-3-3-3Zm0 2h14c.571 0 1 .429 1 1v14c0 .571-.429 1-1 1H5c-.571 0-1-.429-1-1V5c0-.571.429-1 1-1" style="fill:#000"/></svg>