<svg xmlns="http://www.w3.org/2000/svg" width="24" height="24" fill="none" stroke="currentColor" stroke-linecap="round" stroke-linejoin="round" stroke-width="1" class="lucide lucide-corner-up-right"><path d="M15 3a1 1 0 0 0-.707.293 1 1 0 0 0 0 1.414L18.586 9l-4.293 4.293a1 1 0 0 0 0 1.414 1 1 0 0 0 1.414 0l5-5a1 1 0 0 0 0-1.414l-5-5A1 1 0 0 0 15 3" style="fill:#000"/><path d="M8 8c-2.75 0-5 2.25-5 5v7a1 1 0 0 0 1 1 1 1 0 0 0 1-1v-7c0-1.669 1.331-3 3-3h12a1 1 0 0 0 1-1 1 1 0 0 0-1-1Z" style="fill:#000"/></svg>