<svg xmlns="http://www.w3.org/2000/svg" width="24" height="24" fill="none" stroke="currentColor" stroke-linecap="round" stroke-linejoin="round" stroke-width="1" class="lucide lucide-corner-up-left"><path d="M9 3a1 1 0 0 0-.707.293l-5 5a1 1 0 0 0 0 1.414l5 5a1 1 0 0 0 1.414 0 1 1 0 0 0 0-1.414L5.414 9l4.293-4.293a1 1 0 0 0 0-1.414A1 1 0 0 0 9 3" style="fill:#000"/><path d="M4 8a1 1 0 0 0-1 1 1 1 0 0 0 1 1h12c1.669 0 3 1.331 3 3v7a1 1 0 0 0 1 1 1 1 0 0 0 1-1v-7c0-2.75-2.25-5-5-5Z" style="fill:#000"/></svg>