<svg xmlns="http://www.w3.org/2000/svg" width="24" height="24" fill="none" stroke="currentColor" stroke-linecap="round" stroke-linejoin="round" stroke-width="1" class="lucide lucide-square-library"><path d="M5 2C3.355 2 2 3.355 2 5v14c0 1.645 1.355 3 3 3h14c1.645 0 3-1.355 3-3V5c0-1.645-1.355-3-3-3Zm0 2h14c.571 0 1 .429 1 1v14c0 .571-.429 1-1 1H5c-.571 0-1-.429-1-1V5c0-.571.429-1 1-1" style="fill:#000"/><path d="M7 6a1 1 0 0 0-1 1v10a1 1 0 0 0 1 1 1 1 0 0 0 1-1V7a1 1 0 0 0-1-1M11 6a1 1 0 0 0-1 1v10a1 1 0 0 0 1 1 1 1 0 0 0 1-1V7a1 1 0 0 0-1-1M14.805 6.02a1 1 0 0 0-.785 1.175l2 10a1 1 0 0 0 1.175.785 1 1 0 0 0 .785-1.175l-2-10a1 1 0 0 0-1.175-.785" style="fill:#000"/></svg>