<svg xmlns="http://www.w3.org/2000/svg" width="24" height="24" fill="none" stroke="currentColor" stroke-linecap="round" stroke-linejoin="round" stroke-width="1" class="lucide lucide-cloud-download"><path d="M12 12a1 1 0 0 0-1 1v5.586l-2.293-2.293a1 1 0 0 0-1.414 0 1 1 0 0 0 0 1.414l4 4A1 1 0 0 0 13 21v-8a1 1 0 0 0-1-1" style="fill:#000"/><path d="m15.293 16.293-4 4a1 1 0 0 0 0 1.414 1 1 0 0 0 1.414 0l4-4a1 1 0 0 0 0-1.414 1 1 0 0 0-1.414 0" style="fill:#000"/><path d="M8.219 2.041A7.9 7.9 0 0 0 4.678 3.27C.22 6.133-.253 12.533 3.734 16.02a1 1 0 0 0 1.412-.093 1 1 0 0 0-.095-1.412A5.977 5.977 0 0 1 5.76 4.95a5.976 5.976 0 0 1 8.992 3.334 1 1 0 0 0 .959.715H17.5c1.81 0 2.948 1.118 3.357 2.512s.06 2.951-1.462 3.931a1 1 0 0 0-.3 1.383 1 1 0 0 0 1.382.299c2.253-1.45 2.93-4.035 2.3-6.176S20.18 7 17.5 7h-1.248c-1.385-3.305-4.657-5.276-8.033-4.959" style="fill:#000"/></svg>