<svg xmlns="http://www.w3.org/2000/svg" width="24" height="24" fill="none"><path d="M2 5a1 1 0 0 0-1 1v12c0 .75.452 1.35.97 1.758.52.409 1.16.708 1.91.959 1.503.5 3.459.783 5.62.783 2.023 0 3.868-.25 5.326-.691a1 1 0 0 0 .205-1.827 4.01 4.01 0 0 1-1.974-2.802A4 4 0 0 1 13 15.5c0-1.033.386-1.963 1.023-2.672A3.98 3.98 0 0 1 17 11.5a1 1 0 0 0 1-1V6a1 1 0 0 0-1-1 1 1 0 0 0-1 1v3.717c-1.346.237-2.589.8-3.465 1.775a5.99 5.99 0 0 0-1.45 5.026c.17.99.62 1.863 1.212 2.625-.912.143-1.705.357-2.797.357-1.981 0-3.774-.277-4.986-.682-.607-.202-1.065-.441-1.305-.63C2.969 17.998 3 17.94 3 18V6a1 1 0 0 0-1-1" style="fill:#333;stroke-linecap:round;stroke-linejoin:round"/><path d="M9.5 2.5c-2.161 0-4.117.283-5.62.783-.75.25-1.39.55-1.91.96C1.453 4.65 1 5.248 1 6s.452 1.35.97 1.758c.52.409 1.16.708 1.91.959 1.503.5 3.459.783 5.62.783s4.117-.283 5.62-.783c.75-.25 1.39-.55 1.91-.96C17.547 7.35 18 6.752 18 6s-.452-1.35-.97-1.758c-.52-.409-1.16-.708-1.91-.959-1.503-.5-3.459-.783-5.62-.783m0 2c1.981 0 3.774.277 4.986.682.607.202 1.065.441 1.305.63.24.19.209.248.209.188s.031-.002-.209.188c-.24.189-.698.428-1.305.63-1.212.405-3.005.682-4.986.682s-3.774-.277-4.986-.682c-.607-.202-1.065-.441-1.305-.63C2.969 5.998 3 5.94 3 6s-.031.002.209-.187c.24-.19.698-.43 1.305-.631C5.726 4.777 7.519 4.5 9.5 4.5M2 13a1 1 0 0 0-1 1c0 .75.452 1.35.97 1.758.52.409 1.16.708 1.91.959 1.503.5 3.459.783 5.62.783.943 0 1.849-.055 2.693-.158a1 1 0 0 0 .871-1.113 1 1 0 0 0-1.113-.872c-.76.093-1.587.143-2.451.143-1.981 0-3.774-.277-4.986-.682-.607-.202-1.065-.441-1.305-.63C2.969 13.998 3 13.94 3 14a1 1 0 0 0-1-1m0-4a1 1 0 0 0-1 1c0 .75.452 1.35.97 1.758.52.409 1.16.708 1.91.959 1.503.5 3.459.783 5.62.783 1.438 0 2.788-.129 3.97-.36a1 1 0 0 0 .792-1.171 1 1 0 0 0-1.174-.791A19 19 0 0 1 9.5 11.5c-1.981 0-3.774-.277-4.986-.682-.607-.202-1.065-.441-1.305-.63C2.969 9.998 3 9.94 3 10a1 1 0 0 0-1-1" style="fill:#333;stroke-linecap:round;stroke-linejoin:round"/><path d="M17 9.5a6 6 0 0 0-6 6q.001.52.086 1.018a6 6 0 0 0 2.957 4.205A6 6 0 0 0 17 21.5c3.302 0 6-2.698 6-6s-2.698-6-6-6m0 2c2.221 0 4 1.779 4 4s-1.779 4-4 4c-.72 0-1.387-.188-1.969-.518a4.01 4.01 0 0 1-1.974-2.802A4 4 0 0 1 13 15.5c0-1.033.386-1.963 1.023-2.672A3.98 3.98 0 0 1 17 11.5" style="fill:#333;stroke-linecap:round;stroke-linejoin:round"/><path d="M17 12.5a1 1 0 0 0-1 1v.27l-.232-.135a1 1 0 0 0-1.366.365 1 1 0 0 0 .366 1.365l.234.135-.234.135A1 1 0 0 0 14.402 17a1 1 0 0 0 1.366.365L16 17.23v.27a1 1 0 0 0 1 1 1 1 0 0 0 1-1v-.27l.232.135A1 1 0 0 0 19.598 17a1 1 0 0 0-.366-1.365l-.234-.135.234-.135A1 1 0 0 0 19.598 14a1 1 0 0 0-1.366-.365L18 13.77v-.27a1 1 0 0 0-1-1" style="fill:#333;stroke-linecap:round;stroke-linejoin:round"/></svg>