<svg xmlns="http://www.w3.org/2000/svg" width="24" height="24" fill="none" stroke="currentColor" stroke-linecap="round" stroke-linejoin="round" stroke-width="1" class="lucide lucide-grip-vertical"><path d="M9 10c-1.093 0-2 .907-2 2s.907 2 2 2 2-.907 2-2-.907-2-2-2m0-7c-1.093 0-2 .907-2 2s.907 2 2 2 2-.907 2-2-.907-2-2-2m0 14c-1.093 0-2 .907-2 2s.907 2 2 2 2-.907 2-2-.907-2-2-2m6-7c-1.093 0-2 .907-2 2s.907 2 2 2 2-.907 2-2-.907-2-2-2m0-7c-1.093 0-2 .907-2 2s.907 2 2 2 2-.907 2-2-.907-2-2-2m0 14c-1.093 0-2 .907-2 2s.907 2 2 2 2-.907 2-2-.907-2-2-2" style="fill:#000"/></svg>