<svg xmlns="http://www.w3.org/2000/svg" width="24" height="24" fill="none" stroke="currentColor" stroke-linecap="round" stroke-linejoin="round" stroke-width="1" class="lucide lucide-eye"><path d="M12 4C7.58 4 3.12 6.464 1.137 11.271l-.012.034a2 2 0 0 0 0 1.39l.012.014v.02C3.119 17.536 7.58 20 12 20s8.88-2.464 10.863-7.271l.012-.034a2 2 0 0 0 0-1.39l-.012-.034C20.881 6.464 16.42 4 12 4m0 2c3.679 0 7.312 1.964 8.994 6-1.682 4.036-5.315 6-8.994 6s-7.312-1.964-8.994-6C4.688 7.964 8.32 6 12 6" style="fill:#000"/><path d="M12 8c-2.197 0-4 1.803-4 4s1.803 4 4 4 4-1.803 4-4-1.803-4-4-4m0 2c1.116 0 2 .884 2 2s-.884 2-2 2-2-.884-2-2 .884-2 2-2" style="fill:#000"/></svg>