<svg xmlns="http://www.w3.org/2000/svg" width="24" height="24" fill="none"><path d="M3.5 2A2.517 2.517 0 0 0 1 4.5v15C1 20.868 2.132 22 3.5 22h17c1.368 0 2.5-1.132 2.5-2.5v-15C23 3.132 21.868 2 20.5 2Zm0 2h17c.294 0 .5.206.5.5v15c0 .294-.206.5-.5.5h-17a.48.48 0 0 1-.5-.5v-15c0-.294.206-.5.5-.5" style="fill:#333;stroke-linecap:round;stroke-linejoin:round"/><path d="M2 6a1 1 0 0 0-1 1 1 1 0 0 0 1 1h20a1 1 0 0 0 1-1 1 1 0 0 0-1-1Zm8 5a1 1 0 0 0-1 1 1 1 0 0 0 1 1h8a1 1 0 0 0 1-1 1 1 0 0 0-1-1zm0 4a1 1 0 0 0-1 1 1 1 0 0 0 1 1h8a1 1 0 0 0 1-1 1 1 0 0 0-1-1zm-4-4a1 1 0 0 0-1 1 1 1 0 0 0 1 1h1a1 1 0 0 0 1-1 1 1 0 0 0-1-1Zm0 4a1 1 0 0 0-1 1 1 1 0 0 0 1 1h1a1 1 0 0 0 1-1 1 1 0 0 0-1-1Z" style="fill:#333;stroke-linecap:round;stroke-linejoin:round"/></svg>