<svg xmlns="http://www.w3.org/2000/svg" width="24" height="24" fill="none" stroke="currentColor" stroke-linecap="round" stroke-linejoin="round" stroke-width="1" class="lucide lucide-history"><path d="M11.996 2a10.75 10.75 0 0 0-7.432 3.021l-.011.012-2.26 2.26a1 1 0 0 0 0 1.414 1 1 0 0 0 1.414 0l2.248-2.248A8.75 8.75 0 0 1 12 4c3.606 0 6.233 2.142 7.39 4.938 1.159 2.795.816 6.169-1.734 8.718s-5.923 2.893-8.718 1.735S4 15.606 4 12a1 1 0 0 0-1-1 1 1 0 0 0-1 1c0 4.412 2.705 7.802 6.174 9.238 3.469 1.437 7.777.952 10.896-2.168s3.605-7.427 2.168-10.896S16.412 2 12 2z" style="fill:#000"/><path d="M3 2a1 1 0 0 0-1 1v5a1 1 0 0 0 1 1h5a1 1 0 0 0 1-1 1 1 0 0 0-1-1H4V3a1 1 0 0 0-1-1m9 4a1 1 0 0 0-1 1v5a1 1 0 0 0 .553.895l4 2a1 1 0 0 0 1.342-.448 1 1 0 0 0-.448-1.342L13 11.383V7a1 1 0 0 0-1-1" style="fill:#000"/></svg>