<svg xmlns="http://www.w3.org/2000/svg" width="24" height="24" fill="none" stroke="currentColor" stroke-linecap="round" stroke-linejoin="round" stroke-width="1" class="lucide lucide-folder-clock"><path d="M16 9c-3.854 0-7 3.146-7 7s3.146 7 7 7 7-3.146 7-7-3.146-7-7-7m0 2c2.773 0 5 2.227 5 5s-2.227 5-5 5-5-2.227-5-5 2.227-5 5-5" style="fill:#000"/><path d="M4 2C2.355 2 1 3.355 1 5v13c0 1.645 1.355 3 3 3h3a1 1 0 0 0 1-1 1 1 0 0 0-1-1H4c-.564 0-1-.436-1-1V5c0-.564.436-1 1-1h3.91a1 1 0 0 1 .844.45l.008.009.802 1.191A3 3 0 0 0 12.07 7H20c.564 0 1 .436 1 1a1 1 0 0 0 1 1 1 1 0 0 0 1-1c0-1.645-1.355-3-3-3h-7.93a1 1 0 0 1-.836-.45l-.006-.009-.802-1.191-.004-.002A3 3 0 0 0 7.89 2Z" style="fill:#000"/><path d="M16 13a1 1 0 0 0-1 1v2a1 1 0 0 0 .293.707l1 1a1 1 0 0 0 1.414 0 1 1 0 0 0 0-1.414L17 15.586V14a1 1 0 0 0-1-1" style="fill:#000"/></svg>