<svg xmlns="http://www.w3.org/2000/svg" width="24" height="24" fill="none" stroke="currentColor" stroke-linecap="round" stroke-linejoin="round" stroke-width="1" class="lucide lucide-text-cursor-input"><path d="M5 3a1 1 0 0 0-1 1 1 1 0 0 0 1 1h1c1.116 0 2 .884 2 2a1 1 0 0 0 2 0c0-1.116.884-2 2-2h1a1 1 0 0 0 1-1 1 1 0 0 0-1-1h-1c-1.21 0-2.264.576-3 1.436C8.264 3.576 7.21 3 6 3Zm4 13.014A1 1 0 0 0 8 17c0 1.116-.884 2-2 2H5a1 1 0 0 0-1 1 1 1 0 0 0 1 1h1c1.21 0 2.264-.576 3-1.436.736.86 1.79 1.436 3 1.436h1a1 1 0 0 0 1-1 1 1 0 0 0-1-1h-1c-1.116 0-2-.884-2-2a1 1 0 0 0-1-.986M4 7c-1.645 0-3 1.355-3 3v4c0 1.645 1.355 3 3 3h1a1 1 0 0 0 1-1 1 1 0 0 0-1-1H4c-.564 0-1-.436-1-1v-4c0-.564.436-1 1-1h1a1 1 0 0 0 1-1 1 1 0 0 0-1-1Zm9 0a1 1 0 0 0-1 1 1 1 0 0 0 1 1h7c.564 0 1 .436 1 1v4c0 .564-.436 1-1 1h-7a1 1 0 0 0-1 1 1 1 0 0 0 1 1h7c1.645 0 3-1.355 3-3v-4c0-1.645-1.355-3-3-3Z" style="fill:#000"/><path d="M9 6a1 1 0 0 0-1 1v10a1 1 0 0 0 1 1 1 1 0 0 0 1-1V7a1 1 0 0 0-1-1" style="fill:#000"/></svg>