<svg xmlns="http://www.w3.org/2000/svg" width="24" height="24" fill="none" stroke="currentColor" stroke-linecap="round" stroke-linejoin="round" stroke-width="1" class="lucide lucide-text-cursor-input"><path d="M11 3a1 1 0 0 0-1 1 1 1 0 0 0 1 1h1c1.116 0 2 .884 2 2h2c0-1.116.884-2 2-2h1a1 1 0 0 0 1-1 1 1 0 0 0-1-1h-1c-1.21 0-2.264.576-3 1.436C14.264 3.576 13.21 3 12 3Zm4 13.014A1 1 0 0 0 14 17c0 1.116-.884 2-2 2h-1a1 1 0 0 0-1 1 1 1 0 0 0 1 1h1c1.21 0 2.264-.576 3-1.436.736.86 1.79 1.436 3 1.436h1a1 1 0 0 0 1-1 1 1 0 0 0-1-1h-1c-1.116 0-2-.884-2-2a1 1 0 0 0-1-.986M19 7a1 1 0 0 0-1 1 1 1 0 0 0 1 1h1c.564 0 1 .436 1 1v4c0 .564-.436 1-1 1h-1a1 1 0 0 0-1 1 1 1 0 0 0 1 1h1c1.645 0 3-1.355 3-3v-4c0-1.645-1.355-3-3-3ZM4 7c-1.645 0-3 1.355-3 3v4c0 1.645 1.355 3 3 3h7a1 1 0 0 0 1-1 1 1 0 0 0-1-1H4c-.564 0-1-.436-1-1v-4c0-.564.436-1 1-1h7a1 1 0 0 0 1-1 1 1 0 0 0-1-1Z" style="fill:#000"/><path d="M15 6a1 1 0 0 0-1 1v10a1 1 0 0 0 1 1 1 1 0 0 0 1-1V7a1 1 0 0 0-1-1m-9.213 4.08a.4.4 0 0 0-.41.02l-1.2.8a.4.4 0 0 0-.11.555.4.4 0 0 0 .554.111l.578-.386v2.453a.4.4 0 0 0 .4.4.4.4 0 0 0 .399-.4v-3.2a.4.4 0 0 0-.21-.353m2.599.031c-.39-.173-.89-.048-1.28.34a.366.366 0 0 0 0 .518.366.366 0 0 0 .518 0c.245-.245.379-.228.465-.19s.178.157.178.352c0 .255-.052.373-.13.48-.077.108-.205.208-.372.348-.336.28-.766.771-.766 1.707a.366.366 0 0 0 .365.365h1.27A.366.366 0 0 0 9 13.666a.366.366 0 0 0-.365-.367h-.742c.08-.296.138-.609.341-.778.15-.124.338-.26.498-.482S9 11.51 9 11.131c0-.439-.224-.847-.613-1.02" style="fill:#000"/><path d="M18.705 9.107a3.8 3.8 0 0 0-1.713.532 1 1 0 0 0-.353 1.369 1 1 0 0 0 1.369.353c.591-.348 1.098-.312 1.453-.144.355.167.539.433.539.783 0 .564-.436 1-1 1a1 1 0 0 0-1 1 1 1 0 0 0 1 1c1.645 0 3-1.355 3-3 0-1.15-.716-2.134-1.686-2.592a3.3 3.3 0 0 0-1.609-.3" style="fill:#000" transform="matrix(.33702 0 0 .3976 4.227 6.412)"/><path d="M19 13a1 1 0 0 0-1 1 1 1 0 0 0 1 1c.564 0 1 .436 1 1 0 .53-.264.898-.66 1.076s-.97.2-1.74-.377a1 1 0 0 0-1.4.201 1 1 0 0 0 .2 1.4c1.23.924 2.656 1.097 3.76.6C21.264 18.404 22 17.27 22 16c0-1.645-1.355-3-3-3" style="fill:#000" transform="matrix(.33702 0 0 .3976 4.227 6.412)"/></svg>