<svg xmlns="http://www.w3.org/2000/svg" width="24" height="24" fill="none" stroke="currentColor" stroke-linecap="round" stroke-linejoin="round" stroke-width="1" class="lucide lucide-rectangle-ellipsis"><path d="M4 5C2.355 5 1 6.355 1 8v8c0 1.645 1.355 3 3 3h16c1.645 0 3-1.355 3-3V8c0-1.645-1.355-3-3-3Zm0 2h16c.571 0 1 .429 1 1v8c0 .571-.429 1-1 1H4c-.571 0-1-.429-1-1V8c0-.571.429-1 1-1" style="fill:#000"/><path d="M12 11a1 1 0 0 0-1 1 1 1 0 0 0 1 1h.01a1 1 0 0 0 1-1 1 1 0 0 0-1-1zm5 0a1 1 0 0 0-1 1 1 1 0 0 0 1 1h.01a1 1 0 0 0 1-1 1 1 0 0 0-1-1zM7 11a1 1 0 0 0-1 1 1 1 0 0 0 1 1h.01a1 1 0 0 0 1-1 1 1 0 0 0-1-1z" style="fill:#000"/></svg>