<svg xmlns="http://www.w3.org/2000/svg" width="24" height="24" fill="none" stroke="currentColor" stroke-linecap="round" stroke-linejoin="round" stroke-width="1" class="lucide lucide-list"><path d="M3 11a1 1 0 0 0-1 1 1 1 0 0 0 1 1h.01a1 1 0 0 0 1-1 1 1 0 0 0-1-1zm0 6a1 1 0 0 0-1 1 1 1 0 0 0 1 1h.01a1 1 0 0 0 1-1 1 1 0 0 0-1-1zM3 5a1 1 0 0 0-1 1 1 1 0 0 0 1 1h.01a1 1 0 0 0 1-1 1 1 0 0 0-1-1zm5 6a1 1 0 0 0-1 1 1 1 0 0 0 1 1h13a1 1 0 0 0 1-1 1 1 0 0 0-1-1zm0 6a1 1 0 0 0-1 1 1 1 0 0 0 1 1h13a1 1 0 0 0 1-1 1 1 0 0 0-1-1zM8 5a1 1 0 0 0-1 1 1 1 0 0 0 1 1h13a1 1 0 0 0 1-1 1 1 0 0 0-1-1Z" style="fill:#000"/></svg>