<svg xmlns="http://www.w3.org/2000/svg" width="24" height="24" fill="none" stroke="currentColor" stroke-linecap="round" stroke-linejoin="round" stroke-width="1" class="lucide lucide-pin-off"><path d="M12 16a1 1 0 0 0-1 1v5a1 1 0 0 0 1 1 1 1 0 0 0 1-1v-5a1 1 0 0 0-1-1M7.89 1a1 1 0 0 0-1 1 1 1 0 0 0 1 1H16c.417 0 .602.12.752.29.15.168.248.432.248.71s-.098.542-.248.71c-.15.17-.335.29-.752.29-1.093 0-2 .907-2 2v2.34a1 1 0 0 0 1 1 1 1 0 0 0 1-1V7c.917 0 1.731-.38 2.248-.96A3.05 3.05 0 0 0 19 4a3.05 3.05 0 0 0-.752-2.04C17.731 1.38 16.917 1 16 1ZM2 1a1 1 0 0 0-.707.293 1 1 0 0 0 0 1.414l20 20a1 1 0 0 0 1.414 0 1 1 0 0 0 0-1.414l-20-20A1 1 0 0 0 2 1" style="fill:#000"/><path d="M9 8a1 1 0 0 0-1 1v1.76a.99.99 0 0 1-.555.894l-.006.004-1.775.897A3 3 0 0 0 4 15.24V16c0 1.093.907 2 2 2h11a1 1 0 0 0 1-1 1 1 0 0 0-1-1H6v-.76c0-.381.213-.724.555-.894l.006-.004 1.775-.897A3 3 0 0 0 10 10.76V9a1 1 0 0 0-1-1" style="fill:#000"/></svg>