<svg xmlns="http://www.w3.org/2000/svg" width="24" height="24" fill="none" stroke="currentColor" stroke-linecap="round" stroke-linejoin="round" stroke-width="1" class="lucide lucide-pin"><path d="M12 16a1 1 0 0 0-1 1v5a1 1 0 0 0 1 1 1 1 0 0 0 1-1v-5a1 1 0 0 0-1-1" style="fill:#000"/><path d="M8 1c-.917 0-1.731.38-2.248.96A3.05 3.05 0 0 0 5 4c0 .722.235 1.458.752 2.04C6.269 6.62 7.083 7 8 7v3.76a.99.99 0 0 1-.555.894l-.006.004-1.775.897A3 3 0 0 0 4 15.24V16c0 1.093.907 2 2 2h12c1.093 0 2-.907 2-2v-.76c0-1.136-.646-2.18-1.664-2.685l-1.775-.897-.006-.004A.99.99 0 0 1 16 10.76V7c.917 0 1.731-.38 2.248-.96A3.05 3.05 0 0 0 19 4a3.05 3.05 0 0 0-.752-2.04C17.731 1.38 16.917 1 16 1Zm0 2h8c.417 0 .602.12.752.29.15.168.248.432.248.71s-.098.542-.248.71c-.15.17-.335.29-.752.29-1.093 0-2 .907-2 2v3.76c0 1.136.646 2.18 1.664 2.685l1.775.897.006.004c.342.17.555.513.555.894V16H6v-.76c0-.381.213-.724.555-.894l.006-.004 1.775-.897A3 3 0 0 0 10 10.76V7c0-1.093-.907-2-2-2-.417 0-.602-.12-.752-.29A1.1 1.1 0 0 1 7 4c0-.278.098-.542.248-.71.15-.17.335-.29.752-.29" style="fill:#000"/></svg>