<svg xmlns="http://www.w3.org/2000/svg" width="24" height="24" fill="none"><path d="M9.5 1c-2.197 0-4 1.803-4 4H2a1 1 0 0 0-1 1v6a1 1 0 0 0 1 1h2c1.116 0 2 .884 2 2s-.884 2-2 2H2a1 1 0 0 0-1 1v4a1 1 0 0 0 1 1h15a1 1 0 0 0 1-1v-3h1c2.197 0 4-1.803 4-4s-1.803-4-4-4h-1V6a1 1 0 0 0-1-1h-3.5c0-2.197-1.803-4-4-4m0 2c1.116 0 2 .884 2 2v1a1 1 0 0 0 1 1H16v5a1 1 0 0 0 1 1h2c1.116 0 2 .884 2 2s-.884 2-2 2h-2a1 1 0 0 0-1 1v3H3v-2h1c2.197 0 4-1.803 4-4s-1.803-4-4-4H3V7h3.5a1 1 0 0 0 1-1V5c0-1.116.884-2 2-2" style="fill:#333;stroke-linejoin:round"/></svg>