<svg xmlns="http://www.w3.org/2000/svg" width="24" height="24" fill="none" stroke="currentColor" stroke-linecap="round" stroke-linejoin="round" stroke-width="1" class="lucide lucide-redo"><path d="M21 6a1 1 0 0 0-1 1v5h-5a1 1 0 0 0-1 1 1 1 0 0 0 1 1h6a1 1 0 0 0 1-1V7a1 1 0 0 0-1-1" style="fill:#000"/><path d="M12 7C6.489 7 2 11.489 2 17a1 1 0 0 0 1 1 1 1 0 0 0 1-1 7.985 7.985 0 0 1 7.998-8 8 8 0 0 1 5.334 2.045l2.998 2.7a1 1 0 0 0 1.414-.075 1 1 0 0 0-.074-1.414l-3-2.7-.002-.001A10 10 0 0 0 12.002 7z" style="fill:#000"/></svg>