<svg xmlns="http://www.w3.org/2000/svg" width="24" height="24" fill="none" stroke="currentColor" stroke-linecap="round" stroke-linejoin="round" stroke-width="1" class="lucide lucide-undo-dot"><path d="M10.646 7.084c-1.868.25-3.716 1.043-5.312 2.47l-.004.003-3 2.699a1 1 0 0 0-.074 1.414 1 1 0 0 0 1.414.074l2.996-2.7.004-.001c2.603-2.326 5.894-2.545 8.592-1.34C17.96 10.91 19.997 13.507 20 17a1 1 0 0 0 1 1 1 1 0 0 0 1-1c-.004-4.282-2.571-7.626-5.922-9.123a10.1 10.1 0 0 0-5.432-.793" style="fill:#000"/><path d="M3 6a1 1 0 0 0-1 1v6a1 1 0 0 0 1 1h6a1 1 0 0 0 1-1 1 1 0 0 0-1-1H4V7a1 1 0 0 0-1-1m9 9c-1.093 0-2 .907-2 2s.907 2 2 2 2-.907 2-2-.907-2-2-2" style="fill:#000"/></svg>