<svg xmlns="http://www.w3.org/2000/svg" width="24" height="24" fill="none" stroke="currentColor" stroke-linecap="round" stroke-linejoin="round" stroke-width="1" class="lucide lucide-toggle-right"><path d="M8 5c-3.86 0-7 3.14-7 7s3.14 7 7 7h8c3.86 0 7-3.14 7-7s-3.14-7-7-7zm0 2h8c2.787 0 5 2.213 5 5s-2.213 5-5 5H8c-2.787 0-5-2.213-5-5s2.213-5 5-5" style="fill:#000"/><path d="M16 9c-1.645 0-3 1.355-3 3s1.355 3 3 3 3-1.355 3-3-1.355-3-3-3m0 2c.564 0 1 .436 1 1s-.436 1-1 1-1-.436-1-1 .436-1 1-1" style="fill:#000"/></svg>