<svg xmlns="http://www.w3.org/2000/svg" width="24" height="24" fill="none" stroke="currentColor" stroke-linecap="round" stroke-linejoin="round" stroke-width="1" class="lucide lucide-sheet"><path d="M5 2C3.355 2 2 3.355 2 5v14c0 1.645 1.355 3 3 3h14c1.645 0 3-1.355 3-3V5c0-1.645-1.355-3-3-3Zm0 2h14c.571 0 1 .429 1 1v14c0 .571-.429 1-1 1H5c-.571 0-1-.429-1-1V5c0-.571.429-1 1-1" style="fill:#000"/><path d="M3 8a1 1 0 0 0-1 1 1 1 0 0 0 1 1h18a1 1 0 0 0 1-1 1 1 0 0 0-1-1Zm0 6a1 1 0 0 0-1 1 1 1 0 0 0 1 1h18a1 1 0 0 0 1-1 1 1 0 0 0-1-1z" style="fill:#000"/><path d="M9 8a1 1 0 0 0-1 1v12a1 1 0 0 0 1 1 1 1 0 0 0 1-1V9a1 1 0 0 0-1-1m6 0a1 1 0 0 0-1 1v12a1 1 0 0 0 1 1 1 1 0 0 0 1-1V9a1 1 0 0 0-1-1" style="fill:#000"/></svg>