<svg xmlns="http://www.w3.org/2000/svg" width="24" height="24" fill="none" stroke="currentColor" stroke-linecap="round" stroke-linejoin="round" stroke-width="1" class="lucide lucide-tablet"><path d="M6 1C4.355 1 3 2.355 3 4v16c0 1.645 1.355 3 3 3h12c1.645 0 3-1.355 3-3V4c0-1.645-1.355-3-3-3Zm0 2h12c.571 0 1 .429 1 1v16c0 .571-.429 1-1 1H6c-.571 0-1-.429-1-1V4c0-.571.429-1 1-1" style="fill:#000"/><path d="M12 17a1 1 0 0 0-1 1 1 1 0 0 0 1 1h.01a1 1 0 0 0 1-1 1 1 0 0 0-1-1z" style="fill:#000"/></svg>