<svg xmlns="http://www.w3.org/2000/svg" width="24" height="24" fill="none" stroke="currentColor" stroke-linecap="round" stroke-linejoin="round" stroke-width="1" class="lucide lucide-list-tree"><path d="M13 11a1 1 0 0 0-1 1 1 1 0 0 0 1 1h8a1 1 0 0 0 1-1 1 1 0 0 0-1-1zM8 5a1 1 0 0 0-1 1 1 1 0 0 0 1 1h13a1 1 0 0 0 1-1 1 1 0 0 0-1-1Zm5 12a1 1 0 0 0-1 1 1 1 0 0 0 1 1h8a1 1 0 0 0 1-1 1 1 0 0 0-1-1zM3 5a1 1 0 0 0-1 1v4c0 1.645 1.355 3 3 3h3a1 1 0 0 0 1-1 1 1 0 0 0-1-1H5c-.555 0-1-.445-1-1V6a1 1 0 0 0-1-1" style="fill:#000"/><path d="M3 9a1 1 0 0 0-1 1v6c0 1.645 1.355 3 3 3h3a1 1 0 0 0 1-1 1 1 0 0 0-1-1H5c-.555 0-1-.445-1-1v-6a1 1 0 0 0-1-1" style="fill:#000"/></svg>