<svg xmlns="http://www.w3.org/2000/svg" width="24" height="24" fill="none"><path d="M8.662 9.129a.984.984 0 0 0-.984.984v3.772a.984.984 0 0 0 .984.984h10.272a.984.984 0 0 0 .984-.984v-3.772a.984.984 0 0 0-.984-.984Zm.984 1.969h8.303V12.9H9.646Zm-.984-8.571a.984.984 0 0 0-.984.985v3.773a.984.984 0 0 0 .984.985h7.19a.984.984 0 0 0 .984-.985V3.512a.984.984 0 0 0-.984-.985zm.984 1.97h5.221V6.3h-5.22ZM8.662 15.73a.984.984 0 0 0-.984.985v3.771a.984.984 0 0 0 .984.985h13.354a.984.984 0 0 0 .984-.985v-3.771a.984.984 0 0 0-.984-.985zm.984 1.97h11.385v1.802H9.646Z" style="fill:#333;stroke-linejoin:round"/><path d="M1.984 4.414v1.969h6.164V4.414zm0 6.602v1.968h6.164v-1.968zm0 6.601v1.967h6.164v-1.967z" style="fill:#333;stroke-linejoin:round"/><path d="M1 2.568V21.43h1.969V2.568Z" style="fill:#333;stroke-linejoin:round"/></svg>