<svg xmlns="http://www.w3.org/2000/svg" width="24" height="24" fill="none" stroke="currentColor" stroke-linecap="round" stroke-linejoin="round" stroke-width="1" class="lucide lucide-folder-tree"><path d="M13 2c-1.093 0-2 .907-2 2v5c0 1.093.907 2 2 2h7c1.093 0 2-.907 2-2V6c0-1.093-.907-2-2-2h-2.5l-.9-1.2A2 2 0 0 0 15 2Zm0 2h2l.9 1.2c.378.502.971.8 1.6.8H20v3h-7zm0 9c-1.093 0-2 .907-2 2v5c0 1.093.907 2 2 2h7c1.093 0 2-.907 2-2v-3c0-1.093-.907-2-2-2h-2.887l-.416-.844.02.043A2 2 0 0 0 14.88 13Zm0 2h1.883l.021.043.42.85.002.007a2.01 2.01 0 0 0 1.762 1.1H20v3h-7zM3 4a1 1 0 0 0-1 1c0 1.645 1.355 3 3 3h3a1 1 0 0 0 1-1 1 1 0 0 0-1-1H5c-.564 0-1-.436-1-1a1 1 0 0 0-1-1" style="fill:#000"/><path d="M3 2a1 1 0 0 0-1 1v13c0 1.645 1.355 3 3 3h3a1 1 0 0 0 1-1 1 1 0 0 0-1-1H5c-.564 0-1-.436-1-1V3a1 1 0 0 0-1-1" style="fill:#000"/></svg>