<svg xmlns="http://www.w3.org/2000/svg" width="24" height="24" fill="none" stroke="currentColor" stroke-linecap="round" stroke-linejoin="round" stroke-width="1" class="lucide lucide-undo"><path d="M3 6a1 1 0 0 0-1 1v6a1 1 0 0 0 1 1h6a1 1 0 0 0 1-1 1 1 0 0 0-1-1H4V7a1 1 0 0 0-1-1" style="fill:#000"/><path d="M11.998 7a10 10 0 0 0-6.666 2.555l-.002.002-3 2.699a1 1 0 0 0-.074 1.414 1 1 0 0 0 1.414.074l2.998-2.7.002-.001A8 8 0 0 1 12 9c4.43 0 8 3.57 8 8a1 1 0 0 0 1 1 1 1 0 0 0 1-1c0-5.511-4.489-10-10-10z" style="fill:#000"/></svg>