<svg xmlns="http://www.w3.org/2000/svg" width="24" height="24" fill="none" stroke="currentColor" stroke-linecap="round" stroke-linejoin="round" stroke-width="1" class="lucide lucide-upload"><path d="M3 14a1 1 0 0 0-1 1v4c0 1.645 1.355 3 3 3h14c1.645 0 3-1.355 3-3v-4a1 1 0 0 0-1-1 1 1 0 0 0-1 1v4c0 .564-.436 1-1 1H5c-.564 0-1-.436-1-1v-4a1 1 0 0 0-1-1m8.293-11.707-5 5a1 1 0 0 0 0 1.414 1 1 0 0 0 1.414 0L12 4.414l4.293 4.293a1 1 0 0 0 1.414 0 1 1 0 0 0 0-1.414l-5-5a1 1 0 0 0-1.414 0" style="fill:#000"/><path d="M12 2a1 1 0 0 0-1 1v12a1 1 0 0 0 1 1 1 1 0 0 0 1-1V3a1 1 0 0 0-1-1" style="fill:#000"/></svg>